SplineFontDB: 3.2
FontName: TriumphItalic
FullName: Triumph Italic
FamilyName: Triumph
Weight: Italic
Copyright: Copyright (c) 2025, Conley Ball
UComments: "Created May 12th, 2025"
Version: 001.000
ItalicAngle: -18
UnderlinePosition: -102
UnderlineWidth: 51
Ascent: 768
Descent: 256
InvalidEm: 0
LayerCount: 2
Layer: 0 0 "Back" 1
Layer: 1 0 "Fore" 0
XUID: [1021 458 -1016138486 3677531]
FSType: 0
OS2Version: 0
OS2_WeightWidthSlopeOnly: 0
OS2_UseTypoMetrics: 1
CreationTime: 1747070687
ModificationTime: 1747267964
PfmFamily: 17
TTFWeight: 400
TTFWidth: 5
LineGap: -200
VLineGap: 0
OS2TypoAscent: 0
OS2TypoAOffset: 1
OS2TypoDescent: 0
OS2TypoDOffset: 1
OS2TypoLinegap: -200
OS2WinAscent: 0
OS2WinAOffset: 1
OS2WinDescent: 0
OS2WinDOffset: 1
HheadAscent: 0
HheadAOffset: 1
HheadDescent: 0
HheadDOffset: 1
OS2Vendor: 'PfEd'
Lookup: 4 0 0 "Ligature Substitution in Latin lookup 0" { "Ligature Substitution in Latin lookup 0-1"  } ['liga' ('DFLT' <'dflt' > 'latn' <'dflt' > ) ]
MarkAttachClasses: 1
DEI: 91125
LangName: 1033
Encoding: ISO8859-1
UnicodeInterp: none
NameList: AGL For New Fonts
DisplaySize: -48
AntiAlias: 1
FitToEm: 0
WinInfo: 64 16 4
BeginPrivate: 0
EndPrivate
TeXData: 1 0 0 346030 173015 115343 0 1048576 115343 783286 444596 497025 792723 393216 433062 380633 303038 157286 324010 404750 52429 2506097 1059062 262144
BeginChars: 265 86

StartChar: zero
Encoding: 48 48 0
Width: 523
Flags: HW
LayerCount: 2
Fore
SplineSet
282 436 m 0
 294 438 308 439 318 439 c 0
 322 439 325 439 327 438 c 0
 384 426 400 420 438 399 c 0
 496 367 528 303 528 231 c 0
 528 196 521 160 505 125 c 0
 474 54 440 22 378 4 c 0
 355 -3 334 -7 314 -7 c 0
 277 -7 243 6 203 32 c 0
 135 76 115 118 115 217 c 0
 116 272 120 302 131 325 c 0
 160 380 218 423 282 436 c 0
411 325 m 0
 387 351 375 356 334 359 c 0
 330 359 327 360 323 360 c 0
 242 360 184 302 184 223 c 0
 184 217 185 210 186 203 c 0
 189 177 194 149 197 141 c 0
 209 109 279 85 336 85 c 0
 354 85 370 88 384 93 c 0
 436 115 463 157 463 205 c 0
 463 244 446 287 411 325 c 0
EndSplineSet
Validated: 1
EndChar

StartChar: one
Encoding: 49 49 1
Width: 382
Flags: HW
LayerCount: 2
Fore
SplineSet
140 441 m 0
 144 450 173 453 209 453 c 0
 273 453 360 443 370 433 c 0
 372 431 373 428 373 425 c 0
 373 414 361 398 336 381 c 0
 304 359 308 361 304 229 c 0
 304 223 304 217 304 211 c 0
 304 199 304 188 304 178 c 0
 304 86 313 56 337 51 c 0
 361 46 372 48 372 36 c 0
 372 34 372 32 372 30 c 0
 369 13 352 4 290 1 c 0
 270 0 253 -1 237 -1 c 0
 163 -1 129 12 129 40 c 0
 129 55 163 63 177 69 c 0
 191 75 211 105 211 235 c 0
 211 273 212 300 212 319 c 0
 212 361 207 368 182 380 c 0
 153 394 137 409 137 427 c 0
 137 431 138 436 140 441 c 0
EndSplineSet
Validated: 1
EndChar

StartChar: two
Encoding: 50 50 2
Width: 452
Flags: HW
LayerCount: 2
Fore
SplineSet
201 428 m 0
 219 436 237 439 254 439 c 0
 317 439 372 392 372 325 c 0
 372 294 364 274 336 232 c 0
 316 201 289 168 276 157 c 0
 261 144 253 132 253 122 c 0
 253 112 261 103 277 97 c 0
 284 94 293 94 304 94 c 0
 334 94 376 104 410 122 c 0
 420 127 428 129 434 129 c 0
 444 129 450 123 450 110 c 0
 450 100 447 85 440 66 c 0
 416 4 397 -3 254 -3 c 0
 153 -3 133 -1 128 11 c 0
 124 20 122 28 122 36 c 0
 122 54 133 68 156 86 c 0
 242 152 288 214 288 261 c 0
 288 275 284 287 276 298 c 0
 266 312 248 316 194 320 c 0
 141 323 124 327 124 345 c 0
 124 368 165 411 201 428 c 0
EndSplineSet
Validated: 1
EndChar

StartChar: three
Encoding: 51 51 3
Width: 460
Flags: HW
LayerCount: 2
Fore
SplineSet
176 421 m 0
 199 431 221 436 241 436 c 0
 272 436 298 424 322 400 c 0
 351 371 357 357 357 323 c 0
 357 271 326 209 290 185 c 0
 278 177 269 173 262 173 c 0
 255 173 251 178 251 188 c 0
 251 197 255 210 261 227 c 0
 268 245 272 265 272 277 c 0
 272 281 272 284 271 286 c 0
 263 307 222 324 187 324 c 0
 180 324 174 323 168 322 c 0
 156 319 146 318 138 318 c 0
 119 318 111 326 111 342 c 0
 111 369 141 406 176 421 c 0
167 138 m 0
 187 150 202 157 214 157 c 0
 226 157 233 150 237 138 c 0
 239 127 259 107 281 93 c 0
 336 58 365 25 383 -26 c 0
 392 -53 397 -79 397 -105 c 0
 397 -185 353 -258 268 -314 c 0
 237 -335 204 -345 177 -345 c 0
 144 -345 121 -329 121 -301 c 0
 121 -265 141 -253 196 -253 c 0
 239 -253 250 -248 275 -222 c 0
 299 -196 311 -163 311 -131 c 0
 311 -112 306 -93 298 -77 c 0
 275 -34 214 14 156 34 c 0
 129 42 107 61 104 66 c 0
 103 67 103 69 103 71 c 0
 103 87 130 116 167 138 c 0
EndSplineSet
Validated: 1
EndChar

StartChar: four
Encoding: 52 52 4
Width: 555
Flags: HW
LayerCount: 2
Fore
SplineSet
383 433 m 0
 387 435 391 436 395 436 c 0
 402 436 408 433 414 428 c 0
 422 420 426 400 426 334 c 0
 426 316 425 294 425 268 c 0
 425 243 424 221 424 203 c 0
 424 140 427 118 434 112 c 0
 441 107 470 101 500 99 c 0
 545 97 553 93 556 79 c 0
 556 77 557 75 557 73 c 0
 557 52 531 38 493 38 c 0
 471 38 453 32 442 21 c 0
 431 10 427 1 427 -36 c 0
 427 -54 429 -78 430 -112 c 0
 431 -139 432 -160 432 -178 c 0
 432 -236 423 -249 392 -249 c 0
 386 -249 379 -249 372 -248 c 0
 348 -246 340 -250 340 -212 c 0
 340 -188 343 -149 348 -81 c 0
 350 -50 351 -30 351 -16 c 0
 351 11 346 13 331 19 c 0
 325 22 308 23 285 23 c 0
 238 23 164 17 104 9 c 0
 102 9 101 9 99 9 c 0
 89 9 86 17 84 40 c 0
 84 44 83 48 83 51 c 0
 83 71 90 84 115 112 c 0
 134 134 162 169 176 191 c 0
 190 213 217 248 235 268 c 0
 252 289 288 333 315 366 c 0
 342 399 373 429 383 433 c 0
351 262 m 0
 345 280 338 290 329 290 c 0
 314 290 290 265 240 205 c 0
 200 157 182 130 182 114 c 0
 182 106 186 100 195 97 c 0
 205 93 229 92 255 92 c 0
 296 92 343 96 350 103 c 0
 357 110 360 141 360 176 c 0
 360 208 358 243 351 262 c 0
EndSplineSet
Validated: 1
EndChar

StartChar: five
Encoding: 53 53 5
Width: 424
Flags: HW
LayerCount: 2
Fore
SplineSet
336 458 m 0
 350 474 364 481 379 481 c 0
 380 481 381 481 382 481 c 0
 400 479 409 468 409 450 c 0
 409 433 401 409 385 379 c 0
 355 327 338 318 261 316 c 0
 235 315 208 309 208 301 c 0
 208 292 227 268 261 237 c 0
 333 171 369 96 369 18 c 0
 369 -39 351 -97 313 -157 c 0
 266 -232 208 -277 164 -277 c 0
 153 -277 144 -274 135 -268 c 0
 132 -266 130 -263 130 -260 c 0
 130 -251 143 -236 176 -202 c 0
 252 -124 267 -93 267 -13 c 0
 267 -11 267 -9 267 -6 c 0
 266 79 248 115 169 182 c 0
 132 214 115 235 115 251 c 0
 115 263 131 305 151 344 c 0
 189 420 206 433 274 433 c 0
 305 433 320 439 336 458 c 0
EndSplineSet
Validated: 1
EndChar

StartChar: six
Encoding: 54 54 6
Width: 538
Flags: HW
LayerCount: 2
Fore
SplineSet
522 575 m 0
 532 577 544 580 554 580 c 0
 566 580 582 575 582 547 c 0
 582 523 558 494 541 494 c 0
 519 494 428 449 384 417 c 0
 355 396 340 380 340 368 c 0
 340 357 352 348 376 342 c 0
 424 329 475 293 497 258 c 0
 508 240 514 207 514 174 c 0
 514 144 509 113 499 94 c 0
 468 35 403 -3 330 -3 c 0
 327 -3 324 -3 321 -3 c 0
 285 -3 270 2 233 27 c 0
 180 62 148 115 138 181 c 0
 137 189 136 196 136 204 c 0
 136 296 210 409 321 479 c 0
 387 521 497 570 522 575 c 0
378 299 m 0
 361 316 336 325 312 325 c 0
 292 325 273 319 261 306 c 0
 236 279 224 235 224 191 c 0
 224 136 243 83 277 66 c 0
 292 58 311 55 329 55 c 0
 350 55 371 60 384 69 c 0
 408 87 429 133 429 169 c 0
 429 209 405 271 378 299 c 0
EndSplineSet
Validated: 1
EndChar

StartChar: seven
Encoding: 55 55 7
Width: 532
Flags: HW
LayerCount: 2
Fore
SplineSet
198 359 m 0
 234 414 242 424 329 424 c 0
 349 424 373 423 403 422 c 0
 530 420 567 417 572 407 c 0
 574 404 575 400 575 395 c 0
 575 375 562 337 539 292 c 0
 482 170 477 149 457 106 c 0
 434 57 351 -135 329 -191 c 0
 319 -215 307 -242 302 -247 c 0
 296 -254 285 -258 273 -258 c 0
 261 -258 248 -254 242 -246 c 0
 238 -241 236 -233 236 -223 c 0
 236 -206 242 -184 251 -173 c 0
 255 -168 287 -106 323 -38 c 0
 358 31 407 126 431 175 c 0
 446 203 478 282 478 308 c 0
 478 312 477 315 475 316 c 0
 465 320 413 325 358 325 c 0
 267 325 257 324 226 303 c 0
 204 288 185 281 172 281 c 0
 162 281 157 286 157 287 c 0
 157 293 175 325 198 359 c 0
EndSplineSet
Validated: 1
EndChar

StartChar: eight
Encoding: 56 56 8
Width: 502
Flags: HW
LayerCount: 2
Fore
SplineSet
331 729 m 0
 346 732 360 734 374 734 c 0
 474 734 563 657 565 558 c 0
 565 555 565 552 565 549 c 0
 565 514 559 500 538 473 c 0
 523 453 493 423 470 407 c 0
 447 391 429 375 429 371 c 0
 429 367 440 353 454 341 c 0
 518 288 550 224 550 165 c 0
 550 104 516 47 448 11 c 0
 418 -5 393 -10 369 -10 c 0
 364 -10 358 -10 353 -9 c 0
 275 3 235 37 207 118 c 0
 200 137 197 155 197 172 c 0
 197 214 216 251 254 286 c 0
 289 317 318 325 318 344 c 0
 318 356 307 372 279 399 c 0
 230 447 204 506 204 563 c 0
 204 591 210 617 222 643 c 0
 245 690 280 718 331 729 c 0
446 641 m 0
 434 653 414 665 400 669 c 0
 396 670 392 670 388 670 c 0
 355 670 312 642 293 607 c 0
 286 594 283 583 283 570 c 0
 283 558 286 544 292 527 c 0
 309 481 371 410 394 410 c 0
 401 410 419 424 435 441 c 0
 464 470 479 513 479 553 c 0
 479 587 468 620 446 641 c 0
421 274 m 0
 400 295 379 306 360 306 c 0
 345 306 331 299 318 286 c 0
 287 252 278 226 278 179 c 0
 278 101 321 52 376 52 c 0
 395 52 414 58 434 70 c 0
 462 87 477 118 477 153 c 0
 477 193 458 238 421 274 c 0
EndSplineSet
Validated: 1
EndChar

StartChar: nine
Encoding: 57 57 9
Width: 541
Flags: HW
LayerCount: 2
Fore
SplineSet
256 410 m 0
 284 428 316 435 346 435 c 0
 416 435 483 397 510 359 c 0
 547 308 560 265 560 230 c 0
 560 228 560 226 560 224 c 0
 550 28 444 -87 242 -204 c 1
 204 -221 166 -238 157 -244 c 0
 146 -250 135 -252 124 -252 c 0
 110 -252 98 -248 90 -238 c 0
 86 -233 84 -229 84 -224 c 0
 84 -209 104 -192 148 -169 c 0
 209 -138 354 -30 368 -5 c 0
 369 -3 369 -2 369 0 c 0
 369 23 296 45 266 62 c 0
 185 97 143 162 143 230 c 0
 143 295 181 362 256 410 c 0
402 354 m 0
 383 363 363 370 355 370 c 0
 326 370 273 333 254 301 c 0
 241 279 233 255 233 226 c 0
 233 213 234 199 238 184 c 0
 250 136 292 102 347 81 c 0
 365 74 381 71 395 71 c 0
 441 71 465 110 472 191 c 0
 473 199 473 206 473 213 c 0
 473 278 446 333 402 354 c 0
EndSplineSet
Validated: 1
EndChar

StartChar: ampersand
Encoding: 38 38 10
Width: 844
Flags: HW
LayerCount: 2
Fore
SplineSet
590 774 m 0
 603 782 618 787 633 787 c 0
 669 787 703 765 703 734 c 0
 703 712 479 488 431 463 c 0
 414 454 376 421 349 390 c 0
 324 361 259 299 248 296 c 1
 242 281 234 268 231 263 c 0
 223 242 218 230 218 217 c 0
 218 202 224 187 236 159 c 0
 263 98 285 81 357 68 c 0
 364 67 371 66 379 66 c 0
 434 66 504 98 566 152 c 0
 623 202 655 261 678 363 c 0
 686 395 689 414 689 427 c 0
 689 440 685 446 676 451 c 0
 669 456 652 458 631 458 c 0
 595 458 549 452 534 442 c 0
 527 437 523 428 523 414 c 0
 523 396 528 373 540 345 c 0
 548 327 552 313 552 301 c 0
 552 293 550 285 547 279 c 0
 539 264 518 256 498 256 c 0
 483 256 469 261 463 271 c 0
 458 280 455 293 455 308 c 0
 455 340 466 382 486 422 c 0
 525 498 586 543 662 549 c 0
 673 550 682 551 691 551 c 0
 723 551 742 543 781 516 c 0
 813 494 843 476 847 476 c 0
 852 476 863 492 872 513 c 0
 885 546 904 562 921 562 c 0
 943 562 962 535 962 487 c 0
 962 449 956 433 934 419 c 0
 903 401 873 391 847 391 c 0
 829 391 812 395 798 404 c 0
 782 415 769 420 759 420 c 0
 738 420 729 398 729 350 c 0
 729 268 699 172 656 115 c 0
 582 18 494 -32 400 -32 c 0
 389 -32 378 -31 367 -30 c 0
 229 -13 175 42 147 201 c 0
 142 231 140 258 140 283 c 0
 140 336 152 382 181 444 c 0
 211 511 249 548 323 578 c 0
 338 584 349 586 360 586 c 0
 374 586 388 581 410 571 c 0
 428 562 440 557 450 557 c 0
 467 557 481 571 519 610 c 0
 566 658 577 676 577 708 c 0
 577 712 577 715 577 719 c 0
 577 723 576 726 576 730 c 0
 576 751 582 770 590 774 c 0
255 343 m 0
 272 371 303 402 323 420 c 0
 343 438 353 455 353 469 c 0
 353 480 347 489 334 494 c 0
 332 495 329 495 327 495 c 0
 293 495 225 420 225 376 c 0
 225 357 230 325 236 325 c 0
 237 325 237 324 238 325 c 0
 246 334 251 340 255 343 c 0
EndSplineSet
Validated: 1
EndChar

StartChar: quotesingle
Encoding: 39 39 11
Width: 297
Flags: HW
LayerCount: 2
Fore
SplineSet
285 756 m 0
 297 762 310 764 323 764 c 0
 360 764 397 743 415 707 c 0
 427 684 433 671 433 639 c 0
 433 633 432 627 432 620 c 0
 429 562 416 540 384 506 c 0
 356 476 316 465 286 465 c 0
 261 465 241 472 241 483 c 0
 241 486 243 491 247 495 c 0
 252 500 268 509 283 517 c 0
 312 532 336 562 336 585 c 0
 336 609 318 632 283 652 c 0
 258 667 249 677 249 694 c 0
 249 702 251 711 254 722 c 0
 259 740 266 747 285 756 c 0
EndSplineSet
Validated: 1
EndChar

StartChar: parenleft
Encoding: 40 40 12
Width: 385
Flags: HW
LayerCount: 2
Fore
SplineSet
362 739 m 1
 402 758 430 768 448 768 c 0
 462 768 469 762 469 751 c 0
 469 728 437 681 371 617 c 0
 260 508 211 391 211 230 c 0
 211 227 211 225 211 222 c 0
 211 94 259 -23 351 -111 c 0
 393 -152 414 -194 414 -222 c 0
 414 -243 402 -256 380 -256 c 0
 376 -256 373 -256 368 -255 c 0
 237 -231 99 65 99 230 c 0
 99 237 100 243 100 249 c 0
 120 463 183 597 362 739 c 1
EndSplineSet
Validated: 1
EndChar

StartChar: parenright
Encoding: 41 41 13
Width: 451
Flags: HW
LayerCount: 2
Fore
SplineSet
146 768 m 0
 149 771 153 773 158 773 c 0
 226 773 479 534 484 289 c 0
 484 282 485 276 485 269 c 0
 485 -39 182 -254 119 -254 c 0
 114 -254 111 -253 109 -250 c 0
 106 -245 103 -238 103 -232 c 0
 103 -206 132 -171 195 -121 c 0
 289 -46 377 116 387 234 c 0
 388 243 388 251 388 260 c 0
 388 391 324 539 220 642 c 0
 158 704 136 731 136 749 c 0
 136 756 140 762 146 768 c 0
EndSplineSet
Validated: 1
EndChar

StartChar: asterisk
Encoding: 42 42 14
Width: 526
Flags: HW
LayerCount: 2
Fore
SplineSet
286 696 m 0
 285 704 284 711 284 716 c 0
 284 728 289 729 304 729 c 0
 321 729 340 717 364 686 c 0
 395 649 412 631 430 631 c 0
 445 631 460 643 486 666 c 0
 521 697 548 711 563 711 c 0
 573 711 578 705 578 695 c 0
 578 680 567 657 545 625 c 0
 523 594 506 562 506 554 c 0
 506 546 528 527 555 512 c 0
 597 487 616 470 616 453 c 0
 616 447 613 441 608 434 c 0
 603 426 599 422 591 422 c 0
 582 422 569 428 542 439 c 0
 516 450 496 455 483 455 c 0
 464 455 457 445 457 422 c 0
 457 374 445 332 430 326 c 0
 428 325 426 325 424 325 c 0
 406 325 390 353 390 387 c 0
 390 434 374 468 352 468 c 0
 341 468 314 461 291 451 c 0
 270 442 255 437 244 437 c 0
 231 437 225 443 225 457 c 0
 225 477 256 508 299 529 c 0
 329 544 342 554 342 569 c 0
 342 580 335 595 321 617 c 0
 305 643 289 679 286 696 c 0
EndSplineSet
Validated: 1
EndChar

StartChar: comma
Encoding: 44 44 15
Width: 285
Flags: HW
LayerCount: 2
Fore
SplineSet
114 166 m 0
 126 172 139 174 152 174 c 0
 189 174 226 153 244 117 c 0
 256 94 262 81 262 49 c 0
 262 43 261 37 261 30 c 0
 258 -28 245 -50 213 -84 c 0
 185 -114 145 -125 115 -125 c 0
 90 -125 70 -118 70 -107 c 0
 70 -104 72 -99 76 -95 c 0
 81 -90 97 -81 112 -73 c 0
 141 -58 165 -28 165 -5 c 0
 165 19 147 42 112 62 c 0
 87 77 78 87 78 104 c 0
 78 112 80 121 83 132 c 0
 88 150 95 157 114 166 c 0
EndSplineSet
Validated: 1
EndChar

StartChar: hyphen
Encoding: 45 45 16
Width: 378
Flags: HW
LayerCount: 2
Fore
SplineSet
137 296 m 0
 154 307 207 313 260 313 c 0
 312 313 364 308 380 296 c 0
 395 286 402 270 402 254 c 0
 402 239 396 223 382 209 c 0
 364 191 348 189 267 189 c 0
 153 189 120 202 116 248 c 0
 116 251 116 254 116 257 c 0
 116 275 122 285 137 296 c 0
EndSplineSet
Validated: 1
EndChar

StartChar: period
Encoding: 46 46 17
Width: 272
Flags: HW
LayerCount: 2
Fore
SplineSet
151 179 m 1
 151 181 l 1
 157 183 164 183 171 183 c 0
 188 183 206 179 220 170 c 0
 228 164 249 150 249 92 c 0
 249 69 241 54 228 39 c 0
 199 11 185 5 156 5 c 0
 137 5 127 10 109 26 c 0
 90 44 81 55 81 81 c 0
 81 87 81 94 82 102 c 0
 87 131 122 171 151 179 c 1
EndSplineSet
Validated: 1
EndChar

StartChar: bracketleft
Encoding: 91 91 18
Width: 316
Flags: HW
LayerCount: 2
Fore
SplineSet
113 760 m 0
 178 766 224 768 257 768 c 0
 298 768 320 764 332 755 c 0
 345 746 351 737 351 729 c 0
 351 703 288 684 185 684 c 0
 150 684 116 678 107 669 c 0
 96 658 92 556 92 281 c 0
 92 76 96 -109 100 -130 c 0
 110 -177 140 -189 259 -193 c 0
 335 -195 360 -201 360 -220 c 0
 360 -224 359 -229 357 -235 c 0
 351 -254 327 -256 197 -256 c 0
 79 -256 41 -252 27 -237 c 0
 11 -222 8 -144 7 248 c 0
 7 277 7 305 7 332 c 0
 7 568 11 724 18 734 c 0
 25 746 59 755 113 760 c 0
EndSplineSet
Validated: 1
EndChar

StartChar: bracketright
Encoding: 93 93 19
Width: 304
Flags: HW
LayerCount: 2
Fore
SplineSet
-51 752 m 0
 -36 763 18 768 77 768 c 0
 158 768 251 758 267 742 c 0
 284 726 286 660 291 264 c 0
 293 150 293 62 293 -5 c 0
 293 -155 289 -203 280 -216 c 0
 268 -234 237 -240 120 -249 c 0
 67 -253 33 -256 10 -256 c 0
 -26 -256 -35 -250 -50 -236 c 0
 -61 -224 -67 -215 -67 -208 c 0
 -67 -204 -65 -201 -61 -197 c 0
 -43 -179 42 -162 121 -161 c 0
 159 -161 189 -155 198 -144 c 0
 206 -134 211 31 211 207 c 0
 211 363 207 527 200 597 c 0
 193 676 193 676 82 680 c 0
 -12 682 -33 687 -53 708 c 0
 -64 720 -69 726 -69 732 c 0
 -69 738 -63 743 -51 752 c 0
EndSplineSet
Validated: 1
EndChar

StartChar: A
Encoding: 65 65 20
Width: 870
VWidth: 964
Flags: HW
LayerCount: 2
Fore
SplineSet
795 532 m 0
 791 540 785 547 778 547 c 0
 745 546 613 405 613 375 c 0
 613 373 613 371 615 370 c 0
 624 364 644 362 666 362 c 0
 698 362 734 368 744 377 c 0
 763 394 796 493 796 525 c 0
 796 528 796 530 795 532 c 0
899 732 m 0
 914 742 921 748 928 748 c 0
 934 748 940 744 950 736 c 0
 958 730 962 723 962 708 c 0
 962 681 948 629 911 528 c 0
 886 460 856 374 846 338 c 0
 836 303 818 247 808 212 c 0
 796 172 789 144 789 122 c 0
 789 95 799 77 821 58 c 0
 841 41 852 28 852 20 c 0
 852 2 803 0 673 -2 c 0
 657 -2 643 -2 630 -2 c 0
 556 -2 529 0 526 8 c 0
 525 10 525 12 525 14 c 0
 525 33 556 55 597 66 c 0
 621 73 644 83 650 90 c 0
 669 112 718 240 718 263 c 0
 718 274 709 292 645 292 c 0
 635 292 623 292 609 291 c 0
 514 285 471 265 411 196 c 0
 369 147 351 117 351 91 c 0
 351 80 354 68 360 57 c 0
 367 44 370 36 370 29 c 0
 370 24 368 21 364 17 c 0
 355 8 202 0 104 -0 c 0
 65 0 33 0 25 3 c 0
 11 8 6 14 6 27 c 0
 6 30 6 32 7 36 c 0
 9 56 15 62 41 68 c 0
 173 100 211 117 263 162 c 0
 408 291 565 433 626 493 c 0
 706 571 863 709 899 732 c 0
EndSplineSet
Validated: 1
EndChar

StartChar: B
Encoding: 66 66 21
Width: 598
VWidth: 964
Flags: HW
LayerCount: 2
Fore
SplineSet
457 361 m 0
 445 368 425 370 405 370 c 0
 378 370 351 364 341 355 c 0
 319 333 302 284 280 196 c 0
 272 160 266 137 266 119 c 0
 266 93 276 79 299 68 c 0
 317 59 336 55 355 55 c 0
 422 55 488 107 509 183 c 0
 513 196 514 211 514 226 c 0
 514 283 490 343 457 361 c 0
557 661 m 0
 550 669 534 680 518 684 c 0
 509 687 499 689 491 689 c 0
 447 689 418 647 384 549 c 0
 372 512 365 486 365 465 c 0
 365 435 380 421 411 421 c 0
 419 421 426 423 435 424 c 0
 484 432 526 463 550 513 c 0
 563 539 568 575 568 607 c 0
 568 630 565 651 557 661 c 0
219 743 m 0
 230 745 316 746 411 746 c 0
 603 746 626 739 661 683 c 0
 672 663 680 635 680 606 c 0
 680 587 677 567 671 552 c 0
 657 514 598 454 549 430 c 0
 525 418 504 402 504 394 c 0
 504 386 520 371 541 361 c 0
 562 351 585 332 593 320 c 0
 607 298 613 267 613 234 c 0
 613 182 597 125 567 88 c 0
 512 20 432 -1 235 -1 c 0
 132 -1 107 2 93 15 c 0
 84 23 76 32 76 37 c 0
 76 42 93 68 116 95 c 0
 151 137 162 163 200 292 c 0
 225 373 255 467 268 501 c 0
 281 535 293 582 296 608 c 0
 297 620 298 629 298 637 c 0
 298 655 294 661 280 671 c 0
 268 679 245 686 229 686 c 0
 199 686 183 700 183 715 c 0
 183 727 195 739 219 743 c 0
EndSplineSet
Validated: 1
EndChar

StartChar: C
Encoding: 67 67 22
Width: 623
VWidth: 964
Flags: HW
LayerCount: 2
Fore
SplineSet
382 704 m 0
 443 732 477 746 548 746 c 0
 565 746 584 746 607 744 c 0
 645 742 687 734 718 734 c 0
 728 734 737 735 745 738 c 0
 783 736 802 731 802 708 c 0
 802 691 793 665 774 627 c 0
 755 588 734 551 727 545 c 0
 720 539 715 537 709 537 c 0
 695 537 685 555 685 585 c 0
 685 653 640 694 574 694 c 0
 547 694 515 687 483 672 c 0
 384 625 297 502 261 357 c 0
 254 329 251 299 251 271 c 0
 251 210 265 153 291 126 c 0
 330 86 374 66 417 66 c 0
 469 66 520 94 566 151 c 0
 595 189 609 200 626 200 c 0
 627 200 629 200 630 200 c 0
 649 197 653 194 653 171 c 0
 653 168 653 165 653 162 c 0
 652 142 639 104 624 74 c 0
 596 21 594 16 550 15 c 0
 518 14 468 -7 394 -7 c 0
 364 -7 329 -3 291 7 c 0
 228 29 188 64 150 136 c 0
 137 163 128 228 128 286 c 0
 128 316 130 343 135 366 c 0
 164 500 275 652 382 704 c 0
EndSplineSet
Validated: 1
EndChar

StartChar: D
Encoding: 68 68 23
Width: 756
VWidth: 964
Flags: HW
LayerCount: 2
Fore
SplineSet
625 666 m 0
 592 687 574 692 532 692 c 0
 457 692 437 672 418 582 c 0
 410 544 396 487 386 454 c 0
 339 302 304 161 304 127 c 0
 304 83 323 70 375 70 c 0
 387 70 401 71 417 72 c 0
 519 80 635 145 682 231 c 0
 723 307 740 369 740 437 c 0
 740 446 740 456 739 465 c 0
 735 504 730 547 724 561 c 0
 711 595 675 634 625 666 c 0
194 737 m 0
 209 743 288 746 372 746 c 0
 456 746 549 743 592 737 c 0
 669 727 736 701 769 671 c 0
 822 614 850 538 850 462 c 0
 850 431 846 400 836 370 c 0
 779 178 675 57 525 24 c 0
 501 19 392 7 282 0 c 0
 221 -3 175 -4 139 -4 c 0
 49 -4 29 6 29 33 c 0
 29 61 55 77 99 78 c 0
 152 78 169 99 192 180 c 0
 203 218 222 279 234 317 c 0
 247 355 263 416 271 454 c 0
 279 492 292 540 300 562 c 0
 308 587 312 607 312 624 c 0
 312 660 292 678 244 691 c 0
 224 697 199 707 190 715 c 0
 185 719 183 722 183 726 c 0
 183 731 186 734 194 737 c 0
EndSplineSet
Validated: 1
EndChar

StartChar: E
Encoding: 69 69 24
Width: 692
VWidth: 964
Flags: HW
LayerCount: 2
Fore
SplineSet
331 743 m 0
 386 746 474 747 557 747 c 0
 669 747 772 745 780 740 c 0
 787 735 790 724 790 711 c 0
 790 679 774 631 752 620 c 0
 746 617 743 615 739 615 c 0
 730 615 720 623 701 645 c 0
 671 682 671 682 603 682 c 0
 503 682 491 676 461 619 c 0
 438 573 414 486 414 448 c 0
 414 440 415 436 417 433 c 0
 424 424 469 415 510 415 c 0
 525 415 539 417 550 419 c 0
 568 423 595 436 608 448 c 0
 622 460 631 466 639 466 c 0
 644 466 647 465 652 462 c 0
 663 455 669 450 669 441 c 0
 669 431 662 416 648 388 c 0
 618 328 602 303 588 303 c 0
 580 303 573 310 564 324 c 0
 552 343 544 345 472 345 c 0
 422 345 386 341 378 333 c 0
 360 319 314 175 312 130 c 0
 312 127 312 126 312 123 c 0
 312 89 320 83 364 68 c 0
 378 63 401 63 426 63 c 0
 482 63 554 72 590 87 c 0
 611 96 640 117 655 133 c 0
 673 152 688 161 701 161 c 0
 710 161 718 156 726 148 c 0
 729 144 731 141 731 136 c 0
 731 127 724 112 711 87 c 0
 665 2 676 6 353 2 c 0
 276 1 221 0 180 -0 c 0
 69 0 69 4 65 19 c 0
 63 26 63 30 63 35 c 0
 63 52 73 59 95 59 c 0
 108 59 130 65 145 73 c 0
 174 88 201 148 258 331 c 0
 275 385 303 473 321 526 c 0
 338 576 350 625 350 640 c 0
 350 660 323 681 274 691 c 0
 254 696 239 709 239 721 c 0
 239 725 241 728 244 731 c 0
 247 735 287 740 331 743 c 0
EndSplineSet
Validated: 1
EndChar

StartChar: F
Encoding: 70 70 25
Width: 611
VWidth: 964
Flags: HW
LayerCount: 2
Fore
SplineSet
284 746 m 0
 292 748 377 750 486 750 c 0
 509 750 534 750 559 750 c 0
 769 749 829 750 829 717 c 0
 829 702 817 680 800 646 c 0
 781 608 760 576 753 576 c 0
 746 576 736 593 728 616 c 0
 717 646 705 659 677 673 c 0
 659 681 649 685 635 685 c 0
 624 685 611 684 589 679 c 0
 520 663 502 645 467 558 c 0
 444 499 432 460 432 436 c 0
 432 408 447 398 481 398 c 0
 521 398 609 417 621 427 c 0
 628 434 635 437 642 437 c 0
 653 437 662 428 662 413 c 0
 662 385 617 276 605 276 c 0
 601 276 593 287 588 299 c 0
 580 323 566 327 473 338 c 0
 459 340 447 341 439 341 c 0
 420 341 411 336 401 328 c 0
 391 319 382 306 382 300 c 0
 382 293 371 263 356 230 c 0
 333 177 321 138 321 113 c 0
 321 98 324 87 332 79 c 0
 340 70 352 62 359 62 c 0
 374 62 398 34 398 21 c 0
 398 19 397 18 395 17 c 0
 390 12 319 6 235 2 c 0
 194 0 161 -1 138 -1 c 0
 87 -1 73 4 73 22 c 0
 73 29 75 38 78 48 c 0
 83 67 90 71 112 71 c 0
 179 71 182 78 245 249 c 0
 264 298 300 395 325 464 c 0
 373 593 387 632 387 651 c 0
 387 659 384 663 380 670 c 0
 371 685 354 691 321 691 c 0
 314 691 306 691 298 690 c 0
 297 690 296 690 295 690 c 0
 272 690 248 708 248 722 c 0
 248 726 249 729 253 732 c 0
 260 738 274 744 284 746 c 0
EndSplineSet
Validated: 1
EndChar

StartChar: G
Encoding: 71 71 26
Width: 646
VWidth: 964
Flags: HW
LayerCount: 2
Fore
SplineSet
271 599 m 0
 354 679 456 745 571 745 c 0
 583 745 597 745 609 743 c 0
 640 741 668 728 703 728 c 0
 713 728 724 729 735 732 c 0
 743 734 749 735 756 735 c 0
 787 735 803 713 803 663 c 0
 803 656 804 650 803 642 c 0
 798 575 779 534 754 530 c 0
 753 530 753 530 752 530 c 0
 734 530 714 560 714 588 c 0
 714 596 707 615 699 633 c 0
 686 657 675 666 644 674 c 0
 628 678 612 680 595 680 c 0
 535 680 467 655 406 609 c 0
 324 548 259 411 251 286 c 0
 250 278 250 272 250 264 c 0
 250 168 294 115 332 86 c 0
 363 62 374 58 429 58 c 0
 463 59 482 59 517 77 c 0
 552 95 596 208 598 265 c 0
 598 268 598 270 598 273 c 0
 598 317 589 324 526 343 c 0
 507 349 499 357 499 369 c 0
 499 387 506 387 617 390 c 0
 625 390 634 390 642 390 c 0
 697 390 740 387 744 383 c 0
 746 381 747 379 747 376 c 0
 747 369 741 361 733 350 c 0
 723 337 708 295 700 256 c 0
 691 218 675 157 664 121 c 0
 646 66 633 52 595 33 c 0
 549 6 472 -10 400 -10 c 0
 343 -10 288 -1 253 20 c 0
 168 71 141 119 131 241 c 0
 130 250 130 261 130 271 c 0
 130 386 183 510 271 599 c 0
EndSplineSet
Validated: 1
EndChar

StartChar: H
Encoding: 72 72 27
Width: 885
VWidth: 964
Flags: HW
LayerCount: 2
Fore
SplineSet
262 747 m 0
 265 750 274 751 284 751 c 0
 290 751 295 751 302 750 c 0
 319 748 382 746 447 746 c 0
 452 746 456 746 461 746 c 0
 471 746 482 746 491 746 c 0
 565 746 592 744 600 735 c 0
 604 730 606 727 606 722 c 0
 606 708 587 694 551 684 c 0
 523 677 506 665 492 643 c 0
 469 605 420 462 420 430 c 0
 420 403 455 397 567 397 c 0
 582 397 597 397 615 397 c 0
 760 399 772 404 790 479 c 0
 792 488 796 501 800 517 c 0
 806 538 813 563 818 585 c 0
 826 613 830 634 830 649 c 0
 830 675 816 682 785 687 c 0
 761 691 752 696 750 711 c 0
 750 713 750 715 750 717 c 0
 750 734 766 742 807 742 c 0
 815 742 825 742 836 741 c 0
 854 740 891 739 931 739 c 0
 941 739 952 740 962 740 c 0
 972 740 982 740 992 740 c 0
 1088 740 1100 740 1100 726 c 0
 1100 724 1100 722 1100 719 c 0
 1098 702 1086 694 1048 681 c 0
 1020 672 988 654 977 644 c 0
 954 621 921 557 913 517 c 0
 909 502 891 445 869 390 c 0
 818 258 787 148 787 108 c 0
 787 81 794 72 821 56 c 0
 840 44 851 31 851 22 c 0
 851 7 830 5 686 2 c 0
 647 1 617 1 594 1 c 0
 527 1 523 6 523 19 c 0
 523 33 537 42 579 57 c 0
 667 92 682 147 703 221 c 0
 705 229 708 238 710 246 c 0
 726 300 734 329 734 342 c 0
 734 350 732 352 725 353 c 0
 718 354 643 355 557 355 c 0
 548 355 538 355 530 355 c 0
 413 355 399 352 385 337 c 0
 364 315 306 132 306 95 c 2
 306 94 l 2
 306 87 307 71 339 62 c 0
 362 55 368 51 368 36 c 0
 368 35 368 34 368 33 c 0
 368 32 367 31 367 30 c 0
 364 7 364 7 218 -3 c 0
 164 -7 128 -9 104 -9 c 0
 75 -9 63 -6 57 -0 c 0
 51 6 49 12 49 20 c 0
 49 39 66 60 89 65 c 0
 118 72 173 115 173 132 c 0
 173 137 183 167 212 241 c 0
 235 295 264 375 279 419 c 0
 289 447 302 481 312 508 c 0
 318 523 323 536 326 545 c 0
 336 571 346 609 348 631 c 0
 349 639 349 645 349 651 c 0
 349 670 341 674 304 686 c 0
 267 698 256 705 256 721 c 0
 256 731 257 743 262 747 c 0
EndSplineSet
Validated: 1
EndChar

StartChar: T
Encoding: 84 84 28
Width: 822
VWidth: 966
Flags: HW
LayerCount: 2
Fore
SplineSet
954 761 m 1
 961 782 982 793 1004 793 c 0
 1008 793 1011 793 1015 792 c 0
 1046 785 1062 756 1062 726 c 0
 1062 701 1051 675 1030 662 c 1
 993 650 952 647 911 647 c 0
 865 647 819 651 780 651 c 0
 733 651 695 646 677 623 c 1
 655 565 631 508 609 450 c 1
 580 343 535 216 507 136 c 0
 503 124 501 112 501 103 c 0
 501 56 540 33 540 18 c 0
 540 15 540 13 536 11 c 0
 524 3 490 0 454 0 c 0
 419 0 380 2 357 3 c 0
 355 3 354 3 352 3 c 0
 339 3 325 2 311 2 c 0
 280 2 252 7 252 38 c 0
 252 41 253 42 253 45 c 0
 273 87 335 69 360 107 c 1
 418 256 478 406 538 554 c 0
 548 575 560 605 560 631 c 0
 560 653 551 669 526 677 c 1
 496 680 466 683 435 683 c 0
 389 683 342 677 298 663 c 0
 280 654 276 639 276 623 c 0
 276 599 288 570 290 548 c 1
 282 530 266 523 249 523 c 0
 226 523 199 536 191 558 c 0
 190 566 190 575 190 583 c 0
 190 622 204 664 234 691 c 0
 283 737 360 750 446 750 c 0
 570 750 709 722 804 722 c 0
 811 722 818 722 825 722 c 0
 870 724 928 716 954 761 c 1
EndSplineSet
Validated: 1
EndChar

StartChar: I
Encoding: 73 73 29
Width: 409
VWidth: 965
Flags: HW
LayerCount: 2
Fore
SplineSet
429 747 m 0
 505 753 569 758 572 758 c 0
 575 759 586 757 598 754 c 0
 611 750 617 744 617 734 c 0
 617 719 606 707 557 687 c 0
 527 676 498 658 491 649 c 0
 479 633 432 524 379 381 c 0
 313 210 288 144 288 110 c 0
 288 90 298 82 312 71 c 0
 348 44 360 36 360 28 c 0
 360 24 357 21 352 16 c 0
 343 7 301 3 200 1 c 0
 177 1 158 0 141 0 c 0
 73 0 56 4 44 14 c 0
 41 17 38 19 38 24 c 0
 38 30 43 38 64 53 c 0
 102 79 161 80 189 209 c 1
 208 259 232 316 242 334 c 0
 251 352 259 370 259 376 c 0
 259 381 279 437 302 500 c 0
 332 577 346 619 346 644 c 0
 346 666 336 676 317 684 c 0
 296 693 289 703 289 715 c 0
 289 735 305 738 429 747 c 0
EndSplineSet
Validated: 1
EndChar

StartChar: J
Encoding: 74 74 30
Width: 655
VWidth: 957
Flags: HW
LayerCount: 2
Fore
SplineSet
281 763 m 0
 298 772 317 776 337 776 c 0
 374 776 411 762 438 736 c 0
 474 702 523 672 573 672 c 0
 582 672 592 673 600 675 c 0
 658 689 682 714 720 758 c 0
 730 769 744 774 759 774 c 0
 796 774 838 745 838 709 c 0
 838 703 837 699 835 693 c 0
 813 636 730 627 703 577 c 0
 678 531 643 473 643 432 c 0
 643 429 644 427 644 424 c 0
 650 384 764 423 764 378 c 0
 764 376 764 374 764 372 c 0
 759 346 733 345 705 345 c 0
 700 345 697 345 692 345 c 0
 666 345 641 344 629 324 c 0
 602 280 593 228 567 156 c 0
 541 84 487 -47 438 -157 c 0
 393 -258 259 -267 205 -267 c 0
 200 -267 197 -267 193 -267 c 0
 150 -266 102 -263 87 -227 c 0
 85 -221 83 -215 83 -208 c 0
 83 -175 107 -132 136 -132 c 0
 142 -132 146 -134 152 -137 c 0
 191 -160 216 -202 263 -202 c 0
 269 -202 274 -201 280 -200 c 0
 338 -189 363 -154 396 -61 c 0
 429 32 495 201 516 266 c 0
 519 275 520 284 520 291 c 0
 520 322 493 331 468 331 c 0
 459 331 448 329 440 327 c 0
 436 326 431 325 426 325 c 0
 400 325 366 340 366 357 c 0
 366 365 372 371 387 379 c 0
 406 388 426 391 447 391 c 0
 471 391 494 387 514 387 c 0
 529 387 542 390 550 398 c 0
 575 424 618 518 618 578 c 0
 618 616 595 624 563 624 c 0
 545 624 526 621 507 621 c 2
 506 621 l 2
 453 621 399 679 338 689 c 0
 334 690 331 690 327 690 c 0
 289 690 256 657 256 625 c 0
 256 610 263 596 279 585 c 0
 295 574 302 560 302 546 c 0
 302 522 279 498 254 498 c 0
 246 498 241 500 233 504 c 0
 195 525 185 550 185 629 c 0
 185 682 234 737 281 763 c 0
EndSplineSet
Validated: 1
EndChar

StartChar: K
Encoding: 75 75 31
Width: 736
VWidth: 965
Flags: HW
LayerCount: 2
Fore
SplineSet
340 741 m 0
 347 741 351 741 358 741 c 0
 428 741 467 743 488 743 c 0
 498 743 504 743 506 741 c 0
 514 735 518 727 518 720 c 0
 518 708 505 696 482 691 c 0
 446 684 419 652 411 606 c 0
 408 587 400 560 392 544 c 0
 381 519 365 467 347 409 c 1
 358 415 376 420 396 431 c 0
 443 458 483 485 539 529 c 0
 589 567 640 629 640 685 c 0
 640 693 638 701 636 709 c 0
 634 715 633 718 633 722 c 0
 633 741 658 744 771 753 c 0
 824 757 858 759 881 759 c 0
 918 759 925 754 925 742 c 0
 925 723 885 698 808 670 c 0
 779 660 731 635 699 615 c 0
 628 572 491 443 482 408 c 0
 480 403 479 399 479 393 c 0
 479 370 495 331 556 200 c 0
 580 146 644 83 713 44 c 0
 743 27 758 15 758 7 c 0
 758 -1 741 -5 704 -5 c 0
 697 -5 691 -5 683 -5 c 0
 595 -2 542 29 510 82 c 0
 478 135 456 194 339 378 c 1
 338 379 l 1
 307 271 277 148 277 118 c 0
 277 94 296 71 326 61 c 0
 340 56 350 41 350 30 c 0
 350 24 348 21 343 18 c 0
 336 13 278 8 212 5 c 0
 146 2 88 -4 80 -7 c 0
 79 -8 78 -8 76 -8 c 0
 62 -8 47 15 47 35 c 0
 47 39 47 42 48 45 c 0
 51 55 76 76 104 92 c 0
 157 123 180 159 206 253 c 0
 213 280 223 314 229 329 c 0
 239 359 269 448 293 525 c 0
 306 567 312 602 312 627 c 0
 312 640 311 649 307 657 c 0
 301 666 279 680 256 688 c 0
 227 698 216 708 216 721 c 0
 216 739 225 740 340 741 c 0
EndSplineSet
Validated: 1
EndChar

StartChar: L
Encoding: 76 76 32
Width: 692
VWidth: 964
Flags: HW
LayerCount: 2
Fore
SplineSet
337 741 m 0
 434 746 496 748 536 748 c 0
 591 748 606 743 614 731 c 0
 619 723 622 718 622 712 c 0
 622 700 605 692 562 676 c 0
 534 665 505 651 498 645 c 0
 479 630 446 559 424 491 c 0
 414 458 396 411 385 385 c 0
 345 291 298 143 298 106 c 0
 298 104 299 101 299 100 c 0
 306 72 320 67 405 61 c 0
 417 60 429 60 440 60 c 0
 549 60 626 100 682 187 c 0
 705 223 713 231 729 231 c 0
 731 231 733 231 735 231 c 0
 752 229 757 226 757 212 c 0
 757 209 757 205 756 200 c 0
 753 167 719 70 700 41 c 0
 679 10 664 0 579 -0 c 0
 544 0 500 1 437 4 c 0
 378 7 326 8 284 8 c 0
 231 8 191 6 167 2 c 0
 129 -4 106 -6 92 -6 c 0
 72 -6 72 0 72 16 c 0
 72 34 80 45 103 59 c 0
 151 87 180 135 218 261 c 0
 267 416 288 477 315 532 c 0
 327 558 340 594 344 613 c 0
 345 618 345 621 345 625 c 0
 345 688 233 687 233 714 c 0
 233 719 236 723 243 729 c 0
 254 740 288 738 337 741 c 0
EndSplineSet
Validated: 1
EndChar

StartChar: M
Encoding: 77 77 33
Width: 1165
VWidth: 965
Flags: HW
LayerCount: 2
Fore
SplineSet
1235 746 m 0
 1245 753 1276 757 1299 758 c 0
 1333 758 1350 752 1350 741 c 0
 1350 731 1337 717 1312 699 c 0
 1276 672 1260 649 1217 560 c 0
 1167 458 1088 247 1066 157 c 0
 1063 144 1062 132 1062 122 c 0
 1062 90 1077 69 1111 53 c 0
 1131 44 1143 32 1143 23 c 0
 1143 10 1120 7 1021 5 c 0
 995 4 972 4 951 4 c 0
 853 4 819 11 819 31 c 0
 819 43 837 58 876 76 c 0
 916 96 935 112 946 137 c 0
 999 245 1088 462 1088 484 c 0
 1088 498 1082 505 1074 505 c 0
 1070 505 1065 503 1059 500 c 0
 1036 488 698 148 649 90 c 0
 613 48 586 26 564 26 c 0
 557 26 551 28 545 33 c 0
 538 39 534 42 534 58 c 0
 534 79 541 121 555 218 c 0
 576 356 589 474 589 517 c 0
 589 525 589 530 588 533 c 0
 584 541 575 548 567 548 c 0
 554 548 491 465 443 383 c 0
 434 366 417 340 408 326 c 0
 364 263 284 109 284 87 c 0
 284 46 361 65 361 27 c 0
 361 5 359 6 215 -1 c 0
 163 -4 131 -5 108 -5 c 0
 68 -5 63 0 52 14 c 0
 44 23 41 30 41 35 c 0
 41 41 47 46 58 56 c 0
 69 66 99 85 124 94 c 0
 175 112 213 157 326 333 c 0
 381 419 444 506 480 545 c 0
 490 557 510 587 522 610 c 0
 531 629 537 643 537 653 c 0
 537 672 520 680 481 690 c 0
 443 698 421 716 421 731 c 0
 421 734 421 736 423 739 c 0
 427 745 478 748 557 748 c 0
 562 748 567 748 571 748 c 0
 677 748 703 747 703 701 c 0
 703 686 700 667 696 641 c 0
 690 603 682 515 675 447 c 0
 669 379 661 307 656 287 c 0
 652 274 651 262 651 252 c 0
 651 226 662 212 679 212 c 0
 694 212 714 224 736 248 c 0
 861 387 1198 726 1235 746 c 0
EndSplineSet
Validated: 1
EndChar

StartChar: N
Encoding: 78 78 34
Width: 963
VWidth: 964
Flags: HW
LayerCount: 2
Fore
SplineSet
261 730 m 0
 265 739 273 744 314 744 c 0
 331 744 353 743 382 742 c 0
 482 739 502 737 517 721 c 0
 538 699 625 486 647 407 c 0
 680 281 704 202 713 192 c 0
 720 184 726 179 733 179 c 0
 749 179 766 205 793 264 c 0
 846 378 892 500 924 622 c 1
 924 648 895 667 842 675 c 0
 807 681 781 702 781 720 c 0
 781 724 782 726 785 730 c 0
 791 737 838 740 940 740 c 0
 954 740 969 740 986 740 c 0
 1174 738 1182 738 1182 719 c 0
 1182 699 1150 682 1116 674 c 0
 1078 665 1024 643 1010 615 c 0
 1003 602 978 548 951 495 c 0
 925 442 895 375 885 347 c 0
 875 319 861 284 854 268 c 0
 818 185 789 104 751 43 c 0
 735 18 720 6 706 6 c 0
 687 6 671 27 656 62 c 0
 615 160 551 336 530 412 c 0
 501 524 466 595 443 595 c 0
 440 595 437 594 434 591 c 0
 426 582 347 386 336 347 c 0
 332 334 315 289 297 250 c 0
 274 198 264 161 264 123 c 0
 264 105 266 86 270 66 c 0
 272 56 274 50 274 44 c 0
 274 32 268 27 249 18 c 0
 230 9 188 4 146 4 c 0
 93 4 39 12 31 25 c 0
 28 29 27 33 27 37 c 0
 27 64 78 87 100 87 c 0
 125 87 156 123 202 217 c 0
 248 311 322 480 353 543 c 0
 364 566 370 586 370 605 c 0
 370 637 353 661 322 673 c 0
 272 694 258 705 258 719 c 0
 258 723 259 726 261 730 c 0
EndSplineSet
Validated: 1
EndChar

StartChar: O
Encoding: 79 79 35
Width: 672
VWidth: 964
Flags: HW
LayerCount: 2
Fore
SplineSet
609 673 m 0
 585 688 552 696 521 696 c 0
 487 696 454 687 428 670 c 0
 336 610 253 421 253 276 c 0
 253 268 253 261 254 253 c 0
 259 175 290 98 328 72 c 0
 348 58 379 50 411 50 c 0
 428 50 445 53 460 58 c 0
 520 78 626 187 670 377 c 0
 674 398 678 441 678 480 c 0
 678 484 677 487 677 491 c 0
 675 577 651 641 609 673 c 0
240 590 m 0
 325 702 448 748 506 748 c 0
 640 748 759 660 781 547 c 0
 786 523 788 495 788 469 c 0
 788 306 705 116 515 22 c 0
 477 4 433 -6 391 -6 c 0
 363 -6 335 -1 310 8 c 0
 193 54 135 138 129 263 c 0
 128 273 128 283 128 293 c 0
 128 399 163 491 240 590 c 0
EndSplineSet
Validated: 1
EndChar

StartChar: P
Encoding: 80 80 36
Width: 558
VWidth: 964
Flags: HW
LayerCount: 2
Fore
SplineSet
282 744 m 0
 291 746 321 746 360 746 c 0
 392 746 431 745 469 744 c 0
 646 739 671 732 706 665 c 0
 717 642 721 628 721 603 c 0
 721 597 721 592 721 585 c 0
 721 578 721 570 720 562 c 0
 713 490 705 473 661 419 c 0
 617 365 532 323 478 323 c 0
 460 323 445 328 437 337 c 0
 432 343 430 346 430 350 c 0
 430 358 444 366 488 387 c 0
 580 430 629 500 629 592 c 0
 629 644 583 686 529 686 c 0
 494 686 487 682 471 656 c 0
 461 639 450 610 446 592 c 0
 439 561 387 393 328 214 c 0
 328 213 300 132 300 113 c 0
 300 57 379 41 379 18 c 0
 379 16 378 15 377 13 c 0
 371 4 309 0 244 -0 c 0
 179 0 114 4 105 13 c 0
 98 20 97 26 97 34 c 0
 97 50 108 69 129 79 c 0
 164 98 193 132 201 164 c 0
 205 178 215 207 224 229 c 0
 238 260 329 540 352 617 c 0
 353 623 354 627 354 633 c 0
 354 660 337 686 313 691 c 0
 299 695 277 698 265 701 c 0
 251 704 244 710 244 718 c 0
 244 728 259 740 282 744 c 0
EndSplineSet
Validated: 1
EndChar

StartChar: Q
Encoding: 81 81 37
Width: 640
VWidth: 957
Flags: HW
LayerCount: 2
Fore
SplineSet
124 -21 m 0
 184 -21 255 -29 312 -34 c 0
 438 -44 608 -72 739 -112 c 0
 860 -149 1000 -197 1000 -241 c 0
 1000 -245 999 -247 997 -251 c 0
 992 -259 984 -263 972 -263 c 0
 912 -263 755 -181 483 -145 c 0
 158 -103 -4 -127 -4 -66 c 0
 -4 -34 42 -21 124 -21 c 0
610 673 m 0
 590 687 568 692 545 692 c 0
 507 692 464 676 423 647 c 0
 357 601 286 500 262 410 c 0
 252 370 242 317 242 266 c 0
 242 203 257 144 297 118 c 0
 309 110 323 106 338 106 c 0
 413 106 518 199 597 340 c 0
 642 420 659 490 659 546 c 0
 659 609 638 653 610 673 c 0
439 731 m 0
 486 747 525 755 560 755 c 0
 611 755 651 739 686 705 c 0
 726 666 753 586 753 500 c 0
 753 462 747 420 736 382 c 0
 698 256 574 131 503 88 c 0
 450 56 383 38 327 38 c 0
 307 38 289 39 273 44 c 0
 209 62 163 95 139 152 c 0
 130 175 124 205 124 242 c 0
 124 300 137 373 168 443 c 0
 218 557 324 691 439 731 c 0
EndSplineSet
Validated: 1
EndChar

StartChar: R
Encoding: 82 82 38
Width: 682
VWidth: 964
Flags: HW
LayerCount: 2
Fore
SplineSet
559 670 m 0
 544 680 517 686 493 686 c 0
 472 686 455 682 448 674 c 0
 425 648 379 527 374 486 c 0
 373 476 372 468 372 460 c 0
 372 427 383 415 413 415 c 0
 420 415 428 416 436 417 c 0
 517 428 597 521 597 604 c 0
 597 639 591 648 559 670 c 0
234 714 m 0
 247 740 260 747 276 747 c 0
 281 747 285 747 290 746 c 0
 305 743 351 741 403 741 c 0
 422 741 441 741 461 742 c 0
 484 742 503 742 519 742 c 0
 587 742 605 738 633 724 c 0
 674 702 691 674 691 620 c 0
 691 612 691 603 690 594 c 0
 683 503 621 436 513 404 c 0
 490 396 464 387 458 382 c 0
 455 380 455 377 455 371 c 0
 455 316 581 103 589 86 c 1
 600 75 623 60 640 54 c 0
 663 46 682 25 682 10 c 0
 682 6 682 2 679 -1 c 0
 675 -4 648 -7 618 -9 c 0
 611 -9 605 -10 599 -10 c 0
 538 -10 502 12 478 64 c 0
 368 290 398 305 356 322 c 0
 352 324 348 325 344 325 c 0
 319 325 295 295 278 237 c 0
 257 168 246 124 246 97 c 0
 246 66 259 54 287 46 c 0
 308 41 319 32 321 19 c 0
 321 17 322 16 322 14 c 0
 322 1 306 0 192 -5 c 0
 159 -7 131 -7 108 -7 c 0
 36 -7 14 0 14 23 c 0
 14 25 14 26 14 28 c 0
 16 42 25 50 42 52 c 0
 56 54 82 70 101 86 c 0
 137 117 173 196 211 327 c 0
 227 384 332 636 332 644 c 0
 332 708 232 684 232 708 c 0
 232 710 233 711 234 714 c 0
EndSplineSet
Validated: 1
EndChar

StartChar: S
Encoding: 83 83 39
Width: 502
VWidth: 964
Flags: HW
LayerCount: 2
Fore
SplineSet
246 593 m 0
 269 712 386 748 516 748 c 0
 557 748 600 745 642 739 c 0
 666 732 676 709 676 686 c 0
 676 673 673 660 667 649 c 0
 645 620 632 564 605 564 c 0
 604 564 603 564 602 564 c 0
 573 568 591 640 557 665 c 0
 544 674 509 683 471 683 c 0
 415 683 353 665 350 599 c 0
 350 595 350 592 350 588 c 0
 350 518 395 457 442 407 c 0
 484 364 524 315 536 254 c 0
 541 238 543 221 543 204 c 0
 543 146 518 87 471 51 c 0
 419 9 356 -7 291 -7 c 0
 253 -7 216 -2 181 7 c 0
 141 22 91 9 56 39 c 0
 47 50 43 62 43 74 c 0
 43 104 65 137 76 163 c 1
 96 193 100 241 139 252 c 1
 190 251 169 184 178 151 c 0
 194 100 247 75 298 75 c 0
 310 75 323 75 334 78 c 0
 382 82 427 118 436 166 c 0
 438 174 438 183 438 191 c 0
 438 260 388 321 341 369 c 1
 286 415 243 485 243 558 c 0
 243 570 243 581 246 593 c 0
EndSplineSet
Validated: 1
EndChar

StartChar: U
Encoding: 85 85 40
Width: 892
VWidth: 964
Flags: HW
LayerCount: 2
Fore
SplineSet
338 734 m 0
 361 742 452 746 530 746 c 0
 584 746 633 744 647 739 c 0
 661 733 672 722 672 714 c 0
 672 705 647 676 616 648 c 0
 560 596 484 501 457 447 c 0
 427 388 409 318 409 261 c 0
 409 240 412 222 417 206 c 0
 426 176 477 142 537 126 c 0
 557 121 570 119 583 119 c 0
 597 119 612 121 634 128 c 0
 699 148 766 192 835 262 c 0
 912 341 951 418 951 501 c 0
 951 536 944 570 930 607 c 0
 920 634 913 661 913 677 c 0
 913 681 913 683 914 686 c 0
 921 711 954 729 997 729 c 0
 1022 729 1031 724 1042 702 c 0
 1049 690 1054 672 1054 658 c 0
 1054 654 1054 652 1053 649 c 0
 1051 633 1047 581 1043 534 c 0
 1035 425 1025 396 951 272 c 0
 925 228 863 151 830 123 c 0
 727 35 690 17 587 1 c 0
 568 -2 550 -3 533 -3 c 0
 468 -3 421 18 377 65 c 0
 334 112 314 153 314 206 c 0
 314 228 317 252 324 279 c 0
 334 324 384 451 474 555 c 0
 497 580 515 603 515 607 c 0
 515 626 486 637 444 637 c 0
 411 637 371 631 333 618 c 0
 268 596 252 575 252 520 c 0
 251 471 244 463 217 463 c 0
 194 463 185 478 185 523 c 0
 185 591 205 637 257 681 c 0
 284 704 320 727 338 734 c 0
EndSplineSet
Validated: 1
EndChar

StartChar: V
Encoding: 86 86 41
Width: 837
VWidth: 964
Flags: HW
LayerCount: 2
Fore
SplineSet
281 736 m 0
 298 741 338 743 383 743 c 0
 463 743 558 735 565 726 c 0
 570 719 572 715 572 709 c 0
 572 697 557 687 518 668 c 0
 488 653 458 632 450 622 c 0
 443 611 419 550 394 483 c 0
 368 411 306 266 306 233 c 0
 306 229 306 227 308 226 c 0
 309 226 308 226 309 226 c 0
 325 226 389 277 426 306 c 0
 439 318 509 391 585 468 c 0
 686 572 721 611 721 642 c 0
 721 655 715 666 706 680 c 0
 700 688 697 696 697 703 c 0
 697 731 752 742 887 745 c 0
 910 745 930 746 947 746 c 0
 1011 746 1026 742 1036 732 c 0
 1045 724 1052 717 1052 709 c 0
 1052 701 996 664 973 664 c 0
 950 664 872 640 836 620 c 0
 821 612 755 551 689 484 c 0
 622 417 554 350 533 332 c 0
 485 294 351 172 302 125 c 0
 234 58 154 -6 142 -6 c 2
 141 -6 l 2
 136 -3 131 11 128 25 c 0
 128 27 127 29 127 32 c 0
 127 86 198 240 209 295 c 1
 226 338 254 416 272 469 c 0
 290 522 309 579 316 595 c 0
 320 604 322 615 322 624 c 0
 322 653 305 679 274 696 c 0
 257 705 248 712 248 718 c 0
 248 725 259 729 281 736 c 0
EndSplineSet
Validated: 1
EndChar

StartChar: W
Encoding: 87 87 42
Width: 1111
VWidth: 964
Flags: HW
LayerCount: 2
Fore
SplineSet
1160 753 m 0
 1202 759 1235 763 1259 763 c 0
 1312 763 1329 748 1329 713 c 0
 1329 680 1327 680 1251 670 c 0
 1221 666 1208 656 1174 617 c 0
 1151 591 1085 518 1028 455 c 0
 971 391 904 314 881 282 c 0
 844 231 754 113 686 29 c 0
 663 2 648 -10 637 -10 c 0
 620 -10 613 15 613 51 c 0
 613 77 616 109 622 140 c 0
 654 244 670 329 670 375 c 0
 670 398 666 411 658 414 c 2
 657 414 l 2
 633 414 552 312 517 287 c 1
 472 241 435 201 435 198 c 0
 435 193 376 112 297 13 c 0
 286 -2 267 -17 254 -23 c 0
 246 -27 242 -28 237 -28 c 0
 229 -28 224 -23 215 -12 c 0
 204 2 198 22 198 45 c 0
 198 63 201 82 209 97 c 0
 256 226 288 373 328 509 c 0
 336 536 346 575 351 594 c 0
 355 609 357 625 357 634 c 0
 357 637 356 640 356 642 c 0
 350 656 318 669 273 678 c 0
 253 682 243 693 243 704 c 0
 243 713 250 721 265 727 c 0
 287 735 390 741 473 741 c 0
 521 741 561 740 572 736 c 0
 589 730 597 723 597 715 c 0
 597 705 583 694 557 686 c 0
 508 672 480 657 480 646 c 0
 480 640 472 620 463 598 c 0
 453 577 438 533 430 500 c 0
 422 467 401 400 384 349 c 0
 367 300 358 262 358 239 c 0
 358 226 361 217 368 217 c 0
 405 217 559 386 602 445 c 0
 649 507 707 557 722 638 c 0
 724 646 725 652 725 658 c 0
 725 671 719 678 704 690 c 0
 691 700 684 709 684 717 c 0
 684 729 700 738 733 744 c 0
 763 749 806 751 845 751 c 0
 899 751 948 746 958 738 c 0
 967 730 973 714 973 703 c 0
 973 696 972 692 967 691 c 0
 874 682 857 673 835 634 c 0
 824 613 775 428 758 341 c 0
 750 306 743 267 740 256 c 0
 736 241 739 236 748 236 c 0
 765 236 839 308 882 367 c 0
 901 392 931 431 949 454 c 0
 1016 538 1101 660 1101 671 c 0
 1101 684 1085 693 1068 693 c 0
 1066 693 1064 693 1062 693 c 0
 1061 693 1062 693 1061 693 c 0
 1050 693 1038 710 1038 724 c 0
 1038 729 1040 734 1042 737 c 0
 1045 743 1058 745 1072 745 c 0
 1074 745 1075 745 1077 745 c 0
 1094 745 1129 748 1160 753 c 0
EndSplineSet
Validated: 1
EndChar

StartChar: X
Encoding: 88 88 43
Width: 697
VWidth: 964
Flags: HW
LayerCount: 2
Fore
SplineSet
312 741 m 0
 330 744 364 745 400 745 c 0
 440 745 483 744 504 740 c 0
 530 735 543 728 543 719 c 0
 543 711 534 701 515 690 c 0
 487 674 475 655 475 618 c 0
 475 600 477 579 483 552 c 0
 493 503 502 481 519 481 c 0
 532 481 551 495 579 523 c 0
 636 579 672 643 672 686 c 0
 672 691 672 695 671 700 c 0
 670 707 669 713 669 718 c 0
 669 728 671 735 678 739 c 0
 686 744 725 746 768 746 c 0
 831 746 904 741 911 733 c 0
 918 725 921 719 921 714 c 0
 921 690 840 692 724 599 c 0
 660 547 536 421 527 397 c 0
 525 392 524 383 524 372 c 0
 524 318 545 202 565 148 c 0
 578 114 598 85 627 60 c 0
 649 40 665 24 665 15 c 0
 665 13 665 11 664 10 c 0
 660 4 575 1 507 1 c 0
 467 1 431 1 421 5 c 0
 412 9 407 14 407 21 c 0
 407 30 416 44 435 62 c 0
 454 80 460 86 460 109 c 0
 460 120 459 136 457 159 c 0
 450 235 441 261 421 261 c 0
 404 261 315 175 277 122 c 0
 257 96 250 82 250 64 c 0
 250 58 251 53 252 46 c 0
 254 37 255 31 255 25 c 0
 255 14 249 9 236 5 c 0
 220 1 203 1 183 1 c 0
 121 1 51 15 46 23 c 0
 42 28 39 37 39 45 c 0
 39 53 41 60 46 66 c 0
 54 75 60 77 69 77 c 0
 70 77 71 76 72 76 c 0
 83 76 99 77 125 89 c 0
 173 106 189 119 298 221 c 0
 345 264 391 305 400 313 c 0
 410 321 415 339 415 363 c 0
 415 386 410 413 402 451 c 0
 394 483 384 536 377 570 c 0
 367 625 361 635 318 674 c 0
 293 697 280 714 280 723 c 0
 280 732 290 737 312 741 c 0
EndSplineSet
Validated: 1
EndChar

StartChar: Y
Encoding: 89 89 44
Width: 682
VWidth: 965
Flags: HW
LayerCount: 2
Fore
SplineSet
748 758 m 0
 768 765 783 768 800 768 c 0
 817 768 835 765 857 758 c 0
 888 748 898 721 898 693 c 0
 898 656 881 618 873 609 c 0
 867 603 862 600 854 600 c 0
 841 600 826 609 807 628 c 0
 782 654 768 670 749 670 c 0
 746 670 743 669 740 668 c 0
 705 659 632 593 604 545 c 0
 570 487 480 230 465 168 c 0
 455 126 449 104 449 91 c 0
 449 78 454 73 465 65 c 0
 477 56 497 48 508 48 c 0
 528 48 558 21 558 7 c 0
 558 5 557 3 556 2 c 0
 551 -3 518 -5 463 -5 c 0
 424 -5 373 -5 316 -2 c 0
 236 2 220 7 212 22 c 0
 209 28 208 32 208 37 c 0
 208 54 227 65 268 78 c 0
 324 93 335 117 391 302 c 0
 434 444 451 510 451 554 c 0
 451 571 450 585 445 598 c 0
 432 638 395 674 368 674 c 0
 360 674 337 663 319 652 c 0
 301 642 259 603 234 603 c 0
 222 603 213 611 213 634 c 0
 213 666 221 678 263 717 c 0
 295 746 329 758 367 758 c 0
 370 758 373 758 377 758 c 0
 446 753 495 724 515 654 c 0
 524 623 535 607 549 607 c 0
 562 607 579 621 602 648 c 0
 640 696 702 742 748 758 c 0
EndSplineSet
Validated: 1
EndChar

StartChar: Z
Encoding: 90 90 45
Width: 732
VWidth: 964
Flags: HW
LayerCount: 2
Fore
SplineSet
309 746 m 0
 313 746 317 746 323 746 c 0
 411 746 768 742 847 740 c 0
 904 738 932 733 932 716 c 0
 932 708 926 698 913 685 c 0
 770 555 625 419 474 300 c 1
 410 240 320 179 267 139 c 0
 244 121 233 105 233 92 c 0
 233 75 250 64 280 61 c 0
 428 64 505 60 567 73 c 1
 624 77 661 113 681 166 c 0
 689 195 715 256 751 256 c 0
 758 256 763 254 770 249 c 0
 779 236 783 222 783 208 c 0
 783 182 772 154 766 131 c 0
 754 85 728 18 656 8 c 0
 584 -2 376 5 219 -1 c 0
 217 -1 217 -1 215 -1 c 0
 179 -1 140 -8 106 -17 c 0
 98 -20 92 -21 85 -21 c 0
 57 -21 39 3 39 35 c 0
 39 40 39 43 40 48 c 0
 56 106 162 173 240 240 c 0
 318 307 416 397 503 473 c 1
 611 559 672 607 672 642 c 0
 672 650 671 656 664 663 c 0
 636 693 594 700 555 700 c 0
 546 700 536 700 527 699 c 0
 464 691 391 668 350 630 c 0
 309 592 308 547 263 532 c 0
 257 530 252 530 247 530 c 0
 219 530 206 553 206 584 c 0
 206 648 255 745 309 746 c 0
EndSplineSet
Validated: 1
EndChar

StartChar: m
Encoding: 109 109 46
Width: 801
VWidth: 914
Flags: HW
LayerCount: 2
Fore
SplineSet
470 478 m 0
 477 480 500 487 524 487 c 0
 550 487 574 479 574 447 c 0
 574 435 571 420 563 400 c 0
 555 381 551 366 551 358 c 0
 551 351 554 350 558 350 c 0
 570 350 596 367 639 401 c 0
 699 450 772 485 805 485 c 0
 808 485 813 484 815 483 c 0
 836 475 846 456 846 422 c 0
 846 415 846 408 845 401 c 0
 842 353 795 279 764 212 c 0
 760 202 758 196 758 192 c 0
 758 185 763 183 775 183 c 0
 781 183 787 183 796 184 c 0
 802 184 808 185 812 185 c 0
 832 185 842 181 842 173 c 0
 842 164 830 149 807 127 c 0
 739 62 635 1 593 1 c 0
 590 1 587 1 585 2 c 0
 575 5 570 9 570 18 c 0
 570 31 584 54 615 103 c 0
 641 143 682 215 708 265 c 0
 739 324 754 362 754 382 c 0
 754 391 750 396 743 396 c 0
 703 396 561 245 484 122 c 0
 430 34 393 -2 361 -2 c 0
 352 -2 345 0 337 6 c 0
 331 9 328 14 328 23 c 0
 328 43 341 77 371 127 c 0
 391 160 426 225 447 271 c 0
 475 330 488 367 488 387 c 0
 488 397 484 402 477 402 c 0
 468 402 453 394 433 377 c 0
 371 327 291 228 247 146 c 0
 189 41 164 8 141 8 c 0
 140 8 139 8 138 8 c 0
 121 10 117 17 115 43 c 0
 114 47 114 53 114 59 c 0
 114 101 132 148 176 225 c 0
 230 320 252 363 252 382 c 0
 252 391 246 396 238 396 c 0
 225 396 201 384 177 363 c 0
 157 345 144 335 136 335 c 0
 134 335 131 337 129 339 c 0
 127 341 126 345 126 349 c 0
 126 361 137 379 167 426 c 0
 190 462 226 481 275 481 c 0
 315 481 324 470 332 430 c 0
 335 413 339 405 346 405 c 0
 353 405 365 414 391 432 c 0
 419 452 454 472 470 478 c 0
EndSplineSet
Validated: 1
EndChar

StartChar: n
Encoding: 110 110 47
Width: 503
VWidth: 913
Flags: HW
LayerCount: 2
Fore
SplineSet
203 476 m 0
 220 487 241 492 260 492 c 0
 262 492 262 491 264 491 c 0
 293 489 299 484 301 462 c 0
 301 460 302 458 302 456 c 0
 302 439 297 415 290 397 c 0
 283 380 279 367 279 358 c 0
 279 347 284 343 293 343 c 0
 297 343 323 366 351 395 c 0
 410 456 476 494 525 494 c 0
 535 494 545 491 553 488 c 0
 563 485 567 471 567 451 c 0
 567 401 536 310 492 248 c 0
 482 234 471 210 468 196 c 0
 466 188 464 182 464 179 c 0
 464 175 466 173 473 173 c 0
 479 173 488 175 500 177 c 0
 508 178 515 178 522 178 c 0
 534 178 542 176 544 173 c 0
 544 172 544 172 544 171 c 0
 544 149 453 59 404 33 c 0
 382 21 363 16 349 16 c 0
 333 16 322 22 318 35 c 0
 317 37 317 39 317 41 c 0
 317 60 337 107 373 163 c 0
 385 181 413 235 435 284 c 0
 458 334 469 361 469 374 c 0
 469 378 467 379 465 381 c 0
 462 384 458 387 452 387 c 0
 413 387 331 298 231 148 c 0
 151 27 130 -2 117 -2 c 0
 115 -2 110 0 108 2 c 0
 101 9 95 31 95 60 c 0
 95 98 105 127 156 225 c 0
 190 290 218 350 218 357 c 0
 218 366 203 371 190 371 c 0
 179 371 170 368 166 361 c 0
 163 354 154 353 147 353 c 0
 139 353 132 356 132 363 c 0
 132 389 175 459 203 476 c 0
EndSplineSet
Validated: 1
EndChar

StartChar: a
Encoding: 97 97 48
Width: 447
VWidth: 915
Flags: HW
LayerCount: 2
Fore
SplineSet
370 358 m 0
 370 368 364 374 352 374 c 0
 341 374 327 369 310 360 c 0
 247 326 199 279 166 215 c 0
 146 177 139 157 139 145 c 0
 139 138 142 135 144 133 c 0
 146 131 150 130 154 130 c 0
 163 130 177 135 201 148 c 0
 245 176 315 240 337 284 c 0
 355 320 370 352 370 358 c 0
340 448 m 0
 368 462 409 488 439 488 c 0
 461 488 478 474 478 433 c 0
 478 399 471 380 411 236 c 0
 393 195 379 155 379 148 c 0
 379 136 388 131 400 131 c 0
 407 131 417 133 425 137 c 0
 432 141 438 143 442 143 c 0
 448 143 451 140 457 132 c 0
 464 123 468 114 468 106 c 0
 468 94 459 82 441 61 c 0
 408 23 372 2 342 2 c 0
 328 2 316 6 305 16 c 0
 294 25 289 41 289 59 c 0
 289 76 293 96 302 120 c 0
 309 137 310 152 310 164 c 0
 310 181 307 191 298 191 c 0
 294 191 278 174 264 153 c 0
 228 102 153 32 113 13 c 0
 101 7 93 5 86 5 c 0
 77 5 71 10 63 19 c 0
 51 35 45 53 45 75 c 0
 45 146 103 248 210 350 c 0
 269 407 301 427 340 448 c 0
EndSplineSet
Validated: 1
EndChar

StartChar: b
Encoding: 98 98 49
Width: 444
VWidth: 940
Flags: HW
LayerCount: 2
Fore
SplineSet
428 388 m 0
 426 389 421 390 418 390 c 0
 349 390 196 201 196 118 c 0
 196 107 198 99 204 92 c 0
 213 81 225 77 237 77 c 0
 260 77 291 93 324 129 c 0
 389 198 442 306 442 359 c 0
 442 375 438 385 428 388 c 0
325 856 m 0
 337 858 349 859 361 859 c 0
 389 859 413 852 432 826 c 0
 432 823 414 772 390 714 c 0
 349 614 275 413 264 369 c 0
 262 363 262 357 262 354 c 0
 262 347 264 345 268 345 c 0
 279 345 302 363 341 399 c 0
 398 453 435 475 466 475 c 0
 478 475 488 472 499 466 c 0
 525 453 539 422 539 382 c 0
 539 346 527 302 506 254 c 0
 473 180 375 69 311 25 c 0
 265 -6 247 -14 199 -16 c 0
 195 -16 191 -16 187 -16 c 0
 130 -16 104 14 104 81 c 0
 104 156 131 273 248 602 c 0
 284 704 298 750 298 777 c 0
 298 789 294 797 290 804 c 0
 288 808 286 813 286 819 c 0
 286 836 303 853 325 856 c 0
EndSplineSet
Validated: 1
EndChar

StartChar: c
Encoding: 99 99 50
Width: 311
VWidth: 915
Flags: HW
LayerCount: 2
Fore
SplineSet
294 484 m 0
 308 488 326 490 344 490 c 0
 373 490 399 485 410 476 c 0
 418 469 423 450 423 432 c 0
 423 414 419 396 411 386 c 0
 404 376 394 371 383 371 c 0
 371 371 358 380 347 393 c 0
 336 406 323 414 311 414 c 0
 297 414 282 404 262 386 c 0
 218 346 171 211 171 144 c 0
 171 130 172 119 178 112 c 0
 185 104 195 101 207 101 c 0
 237 101 276 123 297 159 c 0
 306 176 321 187 330 187 c 0
 341 187 344 185 344 173 c 0
 344 167 343 159 342 149 c 0
 331 70 246 2 177 2 c 0
 159 2 142 6 128 16 c 0
 96 38 80 87 80 141 c 0
 80 252 139 396 230 454 c 0
 248 466 277 478 294 484 c 0
EndSplineSet
Validated: 1
EndChar

StartChar: d
Encoding: 100 100 51
Width: 579
VWidth: 938
Flags: HW
LayerCount: 2
Fore
SplineSet
239 104 m 0
 336 157 421 306 421 373 c 0
 421 393 413 404 396 404 c 0
 379 404 352 393 313 363 c 0
 223 288 156 184 156 123 c 0
 156 115 158 107 160 100 c 0
 163 91 173 87 185 87 c 0
 199 87 219 93 239 104 c 0
556 840 m 0
 562 842 571 843 582 843 c 0
 610 843 648 838 659 831 c 0
 662 829 664 824 664 817 c 0
 664 800 656 770 639 716 c 0
 628 685 606 608 589 544 c 0
 572 480 537 369 511 297 c 0
 485 226 464 158 464 146 c 0
 464 128 470 119 486 119 c 0
 497 119 512 125 532 134 c 0
 552 144 564 147 573 147 c 0
 579 147 583 144 586 142 c 0
 590 139 593 134 593 127 c 0
 593 80 488 -23 421 -23 c 0
 414 -23 408 -22 402 -20 c 0
 380 -12 370 -1 370 22 c 0
 370 34 373 50 377 71 c 0
 381 92 384 108 384 119 c 0
 384 131 381 138 374 138 c 0
 364 138 346 123 317 93 c 0
 256 29 188 -8 139 -8 c 0
 119 -8 104 -2 92 10 c 0
 80 24 73 55 73 91 c 0
 73 133 82 183 99 221 c 0
 108 241 232 479 417 481 c 0
 481 481 481 483 507 578 c 0
 516 614 529 662 537 689 c 0
 544 711 547 734 547 756 c 0
 547 767 546 775 544 786 c 0
 543 793 542 800 542 806 c 0
 542 812 543 817 543 820 c 0
 543 834 546 838 556 840 c 0
EndSplineSet
Validated: 1
EndChar

StartChar: e
Encoding: 101 101 52
Width: 317
VWidth: 915
Flags: HW
LayerCount: 2
Fore
SplineSet
316 409 m 0
 304 409 285 397 264 376 c 0
 241 353 227 335 227 323 c 0
 227 315 233 310 245 310 c 0
 275 310 335 359 335 385 c 1
 335 385 335 409 316 409 c 0
263 476 m 0
 285 488 310 492 331 492 c 0
 372 492 408 472 416 438 c 0
 418 428 418 419 418 410 c 0
 418 342 362 289 263 268 c 0
 212 257 184 238 173 207 c 0
 170 196 167 186 167 174 c 0
 167 153 173 132 184 119 c 0
 191 111 200 107 212 107 c 0
 233 107 260 118 287 139 c 0
 308 156 331 166 341 166 c 0
 342 166 342 165 343 165 c 0
 345 163 347 160 347 156 c 0
 347 127 296 46 232 15 c 0
 211 5 192 1 174 1 c 0
 127 1 91 31 79 87 c 0
 77 99 75 113 75 126 c 0
 75 248 173 430 263 476 c 0
EndSplineSet
Validated: 1
EndChar

StartChar: y
Encoding: 121 121 53
Width: 332
VWidth: 890
Flags: HW
LayerCount: 2
Fore
SplineSet
394 490 m 0
 398 492 411 497 423 497 c 0
 424 497 424 497 425 497 c 0
 441 496 460 486 460 457 c 0
 460 455 460 445 458 436 c 0
 450 395 435 358 350 160 c 0
 206 -177 50 -341 -28 -346 c 0
 -38 -347 -48 -347 -55 -347 c 0
 -80 -346 -92 -339 -92 -328 c 0
 -92 -323 -88 -314 -74 -302 c 0
 37 -214 123 -150 185 -6 c 0
 205 39 209 57 213 151 c 0
 214 164 214 177 215 194 c 0
 216 229 218 258 218 283 c 0
 218 358 211 387 195 388 c 0
 193 388 189 389 187 388 c 0
 179 386 160 379 147 378 c 0
 143 377 139 378 136 378 c 0
 126 378 123 381 123 390 c 0
 123 400 129 418 142 440 c 0
 165 483 192 499 232 499 c 0
 234 499 236 499 238 499 c 0
 287 497 301 468 304 371 c 0
 307 312 313 279 323 279 c 0
 325 279 328 281 330 285 c 0
 333 291 343 335 352 385 c 0
 358 423 362 477 394 490 c 0
EndSplineSet
Validated: 1
EndChar

StartChar: f
Encoding: 102 102 54
Width: 452
VWidth: 915
Flags: HW
LayerCount: 2
Fore
SplineSet
553 856 m 0
 575 864 592 867 611 867 c 0
 612 867 614 867 615 867 c 0
 634 867 654 863 680 856 c 0
 728 843 754 813 754 779 c 0
 754 763 747 734 711 708 c 0
 699 699 690 695 681 695 c 0
 664 695 654 712 648 743 c 0
 642 774 624 792 598 792 c 2
 597 792 l 2
 569 792 536 773 506 736 c 0
 475 698 406 556 406 527 c 0
 406 500 430 487 475 486 c 0
 499 486 543 480 567 463 c 0
 573 460 575 455 575 448 c 0
 575 439 569 429 557 427 c 0
 545 425 503 420 464 419 c 0
 424 418 387 411 379 404 c 0
 366 392 341 311 318 196 c 0
 311 165 297 97 287 45 c 0
 277 -6 256 -92 239 -150 c 0
 211 -244 205 -257 153 -306 c 0
 111 -344 53 -361 5 -361 c 0
 4 -361 2 -361 1 -361 c 0
 -20 -361 -40 -357 -54 -350 c 0
 -84 -337 -97 -316 -97 -296 c 0
 -97 -293 -96 -277 -87 -267 c 0
 -80 -260 -64 -257 -44 -257 c 0
 -43 -257 -41 -257 -40 -257 c 0
 -21 -257 3 -260 24 -267 c 0
 34 -269 44 -271 54 -271 c 0
 55 -271 55 -271 56 -271 c 0
 84 -271 108 -259 117 -239 c 0
 119 -230 131 -185 143 -139 c 0
 208 140 226 201 245 253 c 0
 258 285 271 334 273 360 c 0
 278 384 277 384 277 388 c 0
 277 408 264 413 221 434 c 0
 184 452 171 459 171 466 c 0
 171 468 171 472 179 476 c 0
 190 483 217 490 238 494 c 0
 288 500 303 519 334 596 c 0
 396 756 450 820 553 856 c 0
EndSplineSet
Validated: 1
EndChar

StartChar: t
Encoding: 116 116 55
Width: 295
VWidth: 922
Flags: HW
LayerCount: 2
Fore
SplineSet
280 561 m 0
 291 573 304 579 314 579 c 0
 334 579 348 559 348 528 c 0
 348 521 348 516 347 509 c 0
 346 502 345 494 345 490 c 0
 345 458 370 476 401 450 c 0
 408 443 412 440 412 433 c 0
 412 416 387 402 361 402 c 0
 314 402 312 398 220 175 c 0
 214 163 214 153 214 145 c 0
 214 128 225 121 248 121 c 0
 255 121 263 122 272 123 c 0
 283 125 292 126 299 126 c 0
 310 126 316 123 316 117 c 0
 316 109 302 94 271 66 c 0
 208 13 171 -10 145 -10 c 0
 131 -10 121 -2 112 12 c 0
 106 21 103 30 103 46 c 0
 103 82 120 140 160 254 c 0
 186 327 197 359 197 378 c 0
 197 392 190 401 178 413 c 0
 166 426 160 436 160 445 c 0
 160 462 182 471 205 475 c 0
 224 478 239 492 249 513 c 0
 258 531 271 551 280 561 c 0
EndSplineSet
Validated: 1
EndChar

StartChar: g
Encoding: 103 103 56
Width: 423
VWidth: 883
Flags: HW
LayerCount: 2
Fore
SplineSet
263 -232 m 0
 234 -219 199 -207 182 -207 c 0
 181 -207 181 -207 180 -207 c 0
 138 -208 1 -286 -13 -317 c 0
 -16 -325 -19 -330 -19 -336 c 0
 -19 -346 -14 -354 3 -367 c 0
 34 -394 130 -412 210 -412 c 0
 212 -412 213 -412 215 -412 c 0
 282 -412 328 -390 351 -349 c 0
 357 -339 360 -333 360 -326 c 0
 360 -317 354 -309 342 -292 c 0
 329 -274 292 -246 263 -232 c 0
342 388 m 0
 333 399 323 403 312 403 c 0
 265 403 205 306 176 167 c 0
 169 133 166 107 166 87 c 0
 166 65 171 51 181 48 c 0
 183 47 187 47 189 47 c 0
 247 47 351 255 351 350 c 0
 351 367 349 380 342 388 c 0
272 464 m 0
 298 477 315 483 343 483 c 0
 353 483 364 483 376 482 c 0
 409 480 456 475 482 475 c 0
 525 475 546 456 546 435 c 0
 546 414 525 393 483 391 c 0
 440 389 439 388 432 320 c 0
 419 177 360 80 263 34 c 0
 226 15 194 -6 192 -18 c 0
 190 -22 190 -28 190 -34 c 0
 190 -60 207 -92 230 -106 c 0
 243 -114 276 -134 303 -151 c 0
 402 -215 454 -284 454 -337 c 0
 454 -347 451 -357 448 -366 c 0
 436 -397 415 -419 372 -439 c 0
 324 -460 282 -467 160 -467 c 0
 141 -467 121 -467 99 -467 c 0
 88 -467 75 -467 63 -467 c 0
 -6 -466 -38 -456 -69 -422 c 0
 -93 -392 -102 -366 -102 -343 c 0
 -102 -255 36 -205 114 -161 c 0
 124 -154 128 -149 128 -141 c 0
 128 -127 117 -108 115 -82 c 0
 115 -79 114 -73 114 -70 c 0
 114 -34 123 1 124 18 c 0
 124 20 125 23 125 25 c 0
 125 42 120 60 113 86 c 0
 107 107 105 124 105 142 c 0
 105 169 111 199 123 241 c 0
 151 343 211 433 272 464 c 0
EndSplineSet
Validated: 1
EndChar

StartChar: h
Encoding: 104 104 57
Width: 528
VWidth: 942
Flags: HW
LayerCount: 2
Fore
SplineSet
325 846 m 0
 342 853 352 857 363 857 c 0
 374 857 383 854 399 847 c 0
 416 840 421 834 421 816 c 0
 421 809 422 799 420 786 c 0
 418 760 395 678 371 605 c 0
 331 481 296 364 296 343 c 0
 296 336 299 333 306 333 c 0
 322 333 354 352 390 386 c 0
 451 443 501 470 538 470 c 0
 557 470 574 463 586 449 c 0
 604 430 612 403 612 366 c 0
 612 305 587 221 538 114 c 0
 494 17 444 -26 379 -26 c 0
 338 -26 314 -8 314 18 c 0
 314 30 320 44 331 61 c 0
 341 74 349 81 363 81 c 0
 367 81 372 80 379 79 c 0
 385 78 389 78 393 78 c 0
 447 78 482 134 510 267 c 0
 518 304 521 333 521 352 c 0
 521 382 513 393 492 393 c 0
 443 393 301 225 223 76 c 0
 191 14 171 -12 154 -12 c 0
 146 -12 139 -8 131 2 c 0
 123 11 119 18 119 30 c 0
 119 46 124 71 141 129 c 0
 271 605 302 709 302 749 c 0
 302 763 297 770 293 782 c 0
 287 796 283 806 283 813 c 0
 283 825 294 832 325 846 c 0
EndSplineSet
Validated: 1
EndChar

StartChar: i
Encoding: 105 105 58
Width: 240
VWidth: 932
Flags: HW
LayerCount: 2
Fore
SplineSet
189 423 m 0
 230 463 251 476 268 476 c 0
 269 476 271 476 272 476 c 0
 291 474 301 459 301 431 c 0
 301 401 290 356 268 300 c 0
 247 249 237 215 237 194 c 0
 237 175 243 166 260 164 c 0
 274 162 282 155 282 144 c 0
 282 126 264 98 227 59 c 0
 184 15 147 -9 121 -9 c 0
 100 -9 86 6 84 37 c 0
 84 39 82 42 82 45 c 0
 82 81 102 136 145 233 c 0
 163 273 171 297 171 314 c 0
 171 330 164 338 148 342 c 0
 136 344 130 347 130 354 c 0
 130 365 149 385 189 423 c 0
253 721 m 0
 264 730 278 737 292 737 c 0
 294 737 297 736 299 736 c 0
 320 734 325 728 333 700 c 0
 335 690 337 681 337 674 c 0
 337 662 335 652 329 642 c 0
 319 624 306 615 290 615 c 0
 280 615 270 618 258 625 c 0
 241 635 233 654 233 674 c 0
 233 692 239 709 253 721 c 0
EndSplineSet
Validated: 1
EndChar

StartChar: j
Encoding: 106 106 59
Width: 262
VWidth: 905
Flags: HW
LayerCount: 2
Fore
SplineSet
248 454 m 0
 272 470 300 482 309 482 c 0
 326 482 334 464 334 433 c 0
 334 417 332 401 328 381 c 0
 321 352 304 264 288 182 c 0
 272 101 257 17 250 -4 c 0
 243 -25 231 -73 222 -112 c 0
 200 -213 178 -254 121 -307 c 0
 67 -357 15 -383 -27 -383 c 0
 -51 -383 -72 -374 -90 -356 c 0
 -107 -339 -114 -327 -114 -313 c 0
 -114 -301 -107 -288 -95 -271 c 0
 -82 -254 -62 -245 -41 -245 c 0
 -27 -245 -10 -248 7 -256 c 0
 16 -259 24 -262 32 -262 c 0
 58 -262 80 -243 93 -204 c 0
 127 -109 152 -30 168 40 c 0
 178 80 196 148 208 189 c 0
 220 235 227 267 227 288 c 0
 227 305 222 312 214 312 c 0
 205 312 191 300 170 276 c 0
 148 250 131 238 121 238 c 0
 113 238 110 245 110 262 c 0
 110 312 184 413 248 454 c 0
305 742 m 0
 321 759 332 765 344 765 c 0
 347 765 352 764 356 763 c 0
 387 755 395 742 395 696 c 0
 395 666 391 657 371 648 c 0
 361 644 352 642 342 642 c 0
 316 642 292 658 285 685 c 0
 283 692 283 697 283 703 c 0
 283 715 288 725 305 742 c 0
EndSplineSet
Validated: 1
EndChar

StartChar: k
Encoding: 107 107 60
Width: 471
VWidth: 923
Flags: HW
LayerCount: 2
Fore
SplineSet
327 874 m 0
 344 881 357 884 370 884 c 0
 387 884 403 878 416 867 c 0
 423 861 426 853 426 837 c 0
 426 804 410 746 374 649 c 0
 348 579 321 492 312 459 c 0
 305 431 301 415 301 405 c 0
 301 393 307 389 319 379 c 0
 328 372 334 367 334 360 c 0
 334 350 323 338 296 302 c 0
 272 272 255 244 255 235 c 0
 255 234 256 233 256 232 c 0
 259 225 271 222 284 222 c 0
 305 222 334 230 360 243 c 0
 413 271 445 300 457 333 c 0
 460 342 461 351 461 358 c 0
 461 377 451 387 425 387 c 0
 408 387 388 382 362 374 c 0
 358 372 352 372 350 372 c 0
 342 372 338 376 338 383 c 0
 338 395 351 416 374 435 c 0
 410 465 449 481 483 481 c 0
 494 481 505 479 515 476 c 0
 546 465 575 424 575 393 c 0
 575 359 533 300 483 262 c 0
 433 226 424 220 366 208 c 0
 347 204 337 195 337 178 c 0
 337 145 380 87 464 -1 c 0
 585 -126 658 -180 720 -180 c 0
 744 -180 767 -172 789 -156 c 0
 812 -139 829 -133 842 -133 c 0
 852 -133 861 -137 868 -144 c 0
 876 -152 880 -163 880 -175 c 0
 880 -194 870 -215 851 -228 c 0
 819 -251 781 -264 737 -264 c 0
 715 -264 690 -262 664 -255 c 0
 605 -242 587 -229 520 -175 c 0
 437 -106 394 -58 316 49 c 0
 284 92 261 114 242 114 c 0
 225 114 212 99 196 71 c 0
 176 35 159 19 141 19 c 0
 138 19 131 19 128 21 c 0
 118 24 114 34 114 50 c 0
 114 66 118 87 128 115 c 0
 145 162 155 198 206 393 c 0
 224 464 256 571 275 630 c 0
 298 702 308 740 308 766 c 0
 308 784 304 796 295 808 c 0
 288 818 285 826 285 834 c 0
 285 850 298 862 327 874 c 0
EndSplineSet
Validated: 1
EndChar

StartChar: l
Encoding: 108 108 61
Width: 284
VWidth: 942
Flags: HW
LayerCount: 2
Fore
SplineSet
349 837 m 0
 368 840 382 843 393 843 c 0
 410 843 418 837 426 825 c 0
 429 819 432 814 432 806 c 0
 432 783 415 734 359 573 c 0
 267 305 220 152 220 131 c 0
 220 128 223 122 234 122 c 0
 246 122 264 129 285 141 c 0
 303 152 319 161 325 161 c 0
 331 161 333 158 333 151 c 0
 333 138 322 110 302 79 c 0
 263 20 203 -17 157 -17 c 0
 136 -17 118 -10 107 7 c 0
 100 18 96 27 96 41 c 0
 96 67 109 109 139 201 c 0
 157 259 186 352 203 410 c 0
 220 468 249 558 267 614 c 0
 287 673 295 698 295 718 c 0
 295 730 290 741 286 754 c 0
 280 770 278 779 278 786 c 0
 278 795 283 802 293 811 c 0
 303 821 328 834 349 837 c 0
EndSplineSet
Validated: 1
EndChar

StartChar: o
Encoding: 111 111 62
Width: 334
VWidth: 915
Flags: HW
LayerCount: 2
Fore
SplineSet
331 396 m 0
 324 408 315 414 303 414 c 0
 287 414 272 405 255 384 c 0
 201 316 152 189 152 126 c 0
 152 112 155 102 161 95 c 0
 168 86 175 81 183 81 c 0
 194 81 207 88 224 104 c 0
 272 144 335 305 335 374 c 0
 335 384 333 390 331 396 c 0
231 465 m 0
 257 484 284 491 310 491 c 0
 350 491 387 468 404 427 c 0
 412 407 416 383 416 353 c 0
 416 299 401 234 378 181 c 0
 374 170 364 147 357 129 c 0
 339 83 275 19 232 5 c 0
 218 1 202 -2 189 -2 c 0
 127 -2 79 45 70 122 c 0
 69 129 69 136 69 144 c 0
 69 246 126 387 231 465 c 0
EndSplineSet
Validated: 1
EndChar

StartChar: p
Encoding: 112 112 63
Width: 394
VWidth: 894
Flags: HW
LayerCount: 2
Fore
SplineSet
377 401 m 0
 365 413 347 425 329 425 c 0
 322 425 316 424 309 420 c 0
 278 389 275 340 261 300 c 0
 258 280 229 187 229 136 c 0
 229 116 233 102 245 102 c 0
 249 102 255 104 262 108 c 0
 334 151 367 207 388 264 c 0
 394 286 399 311 399 335 c 0
 399 359 394 382 377 401 c 0
248 541 m 0
 251 548 256 553 262 557 c 0
 268 559 273 562 277 562 c 0
 307 562 308 497 347 497 c 0
 349 497 349 497 351 497 c 0
 358 499 365 501 372 501 c 0
 411 501 451 478 465 440 c 0
 474 412 478 384 478 354 c 0
 478 303 465 250 444 203 c 0
 413 136 354 72 307 41 c 0
 260 10 220 37 196 -5 c 0
 172 -47 167 -104 156 -158 c 0
 153 -181 144 -206 144 -230 c 0
 144 -247 148 -263 160 -277 c 1
 173 -286 179 -297 179 -307 c 0
 179 -326 159 -342 136 -342 c 0
 130 -342 125 -342 119 -340 c 0
 73 -331 27 -333 -17 -316 c 0
 -34 -310 -41 -303 -41 -294 c 0
 -41 -273 -5 -250 14 -239 c 1
 38 -197 51 -148 64 -101 c 0
 86 -8 119 85 139 179 c 0
 153 249 181 316 195 386 c 0
 197 393 199 401 199 405 c 0
 199 443 121 420 121 457 c 0
 121 474 214 498 248 541 c 0
EndSplineSet
Validated: 1
EndChar

StartChar: q
Encoding: 113 113 64
Width: 470
VWidth: 891
Flags: HW
LayerCount: 2
Fore
SplineSet
432 377 m 0
 430 406 424 410 398 412 c 0
 396 412 394 413 392 413 c 0
 360 413 330 394 265 331 c 0
 196 264 134 173 134 137 c 0
 134 131 135 104 171 104 c 0
 211 104 277 139 342 202 c 0
 403 260 433 312 433 364 c 0
 433 368 432 373 432 377 c 0
509 500 m 0
 520 517 528 524 535 524 c 0
 541 524 545 521 552 514 c 0
 559 507 564 494 564 477 c 0
 564 456 557 427 545 389 c 0
 535 357 515 277 499 214 c 0
 470 89 435 -42 397 -177 c 0
 380 -231 375 -263 375 -287 c 0
 375 -304 379 -317 386 -333 c 0
 389 -342 392 -348 392 -355 c 0
 392 -375 368 -380 306 -380 c 0
 302 -380 298 -380 294 -380 c 0
 211 -380 149 -366 149 -346 c 0
 149 -345 149 -343 150 -342 c 0
 152 -334 175 -317 201 -300 c 0
 249 -271 247 -272 316 -87 c 0
 370 61 392 124 392 150 c 0
 392 161 388 164 381 164 c 0
 373 164 353 149 336 132 c 0
 276 63 193 13 139 13 c 0
 89 13 62 58 62 120 c 0
 62 179 84 254 131 325 c 0
 200 433 310 506 387 506 c 0
 407 506 426 501 440 490 c 0
 452 481 463 476 474 476 c 0
 487 476 498 483 509 500 c 0
EndSplineSet
Validated: 1
EndChar

StartChar: r
Encoding: 114 114 65
Width: 394
VWidth: 915
Flags: HW
LayerCount: 2
Fore
SplineSet
355 425 m 0
 415 484 435 498 463 498 c 0
 466 498 472 498 476 497 c 0
 507 495 515 465 515 435 c 0
 515 422 514 408 512 397 c 0
 504 371 497 367 476 367 c 0
 469 368 462 369 455 369 c 0
 317 369 316 247 253 122 c 1
 217 32 199 6 168 6 c 0
 167 6 168 6 167 6 c 0
 138 6 129 25 129 51 c 0
 129 87 146 131 150 141 c 0
 197 259 223 331 223 350 c 0
 223 369 202 369 193 369 c 0
 190 369 185 369 182 369 c 0
 162 369 142 372 142 404 c 0
 142 425 152 442 174 463 c 0
 195 484 206 491 228 491 c 0
 232 491 237 491 244 490 c 0
 284 488 284 486 284 434 c 0
 284 406 288 379 292 376 c 0
 299 376 326 396 355 425 c 0
EndSplineSet
Validated: 1
EndChar

StartChar: s
Encoding: 115 115 66
Width: 287
VWidth: 916
Flags: HW
LayerCount: 2
Fore
SplineSet
227 475 m 0
 235 481 244 486 253 489 c 0
 265 493 279 497 292 497 c 0
 309 497 324 492 334 479 c 0
 342 462 347 444 347 426 c 0
 347 414 345 402 339 390 c 0
 333 378 323 373 311 373 c 0
 304 373 297 377 290 379 c 0
 280 381 270 383 259 383 c 0
 248 383 240 380 232 373 c 0
 230 369 229 364 229 360 c 0
 229 343 237 325 240 308 c 0
 251 268 274 230 285 190 c 0
 288 179 289 169 289 158 c 0
 289 124 274 90 253 64 c 0
 221 26 172 0 122 0 c 0
 115 0 105 1 98 2 c 0
 68 6 44 32 44 63 c 2
 44 70 l 2
 44 91 52 115 75 118 c 0
 77 118 79 119 81 119 c 0
 107 119 129 101 151 93 c 1
 170 95 182 115 182 133 c 0
 182 135 182 136 182 138 c 0
 178 230 146 270 146 320 c 0
 146 327 146 334 147 341 c 0
 157 393 184 444 227 475 c 0
EndSplineSet
Validated: 1
EndChar

StartChar: u
Encoding: 117 117 67
Width: 513
VWidth: 913
Flags: HW
LayerCount: 2
Fore
SplineSet
520 486 m 0
 532 495 542 499 550 499 c 0
 560 499 566 492 573 476 c 0
 575 469 576 462 576 454 c 0
 576 427 562 389 525 317 c 0
 472 213 453 171 453 162 c 0
 453 155 457 152 464 152 c 0
 478 152 506 167 532 191 c 0
 549 207 558 213 564 213 c 0
 567 213 570 209 570 205 c 0
 570 169 469 17 375 17 c 0
 368 17 364 17 357 19 c 0
 343 22 333 35 333 52 c 0
 333 73 345 102 367 138 c 0
 384 168 402 204 404 217 c 0
 405 224 407 228 407 232 c 0
 407 241 405 246 399 246 c 0
 382 246 339 207 261 125 c 0
 169 27 145 7 124 7 c 0
 97 7 82 17 82 43 c 0
 82 74 101 125 139 203 c 0
 171 270 187 303 187 320 c 0
 187 333 177 336 157 336 c 0
 136 336 124 341 124 352 c 0
 124 370 157 403 218 444 c 0
 261 474 297 487 319 487 c 0
 336 487 343 481 343 464 c 0
 343 447 334 429 240 251 c 0
 217 207 197 168 197 166 c 0
 197 164 206 162 215 162 c 0
 242 162 432 361 480 439 c 0
 491 457 509 479 520 486 c 0
EndSplineSet
Validated: 1
EndChar

StartChar: v
Encoding: 118 118 68
Width: 553
VWidth: 914
Flags: HW
LayerCount: 2
Fore
SplineSet
127 336 m 0
 126 338 126 343 126 345 c 0
 126 389 190 487 358 487 c 0
 419 487 428 486 440 468 c 0
 449 456 454 445 454 433 c 0
 454 415 445 393 424 361 c 0
 353 248 329 204 329 168 c 0
 329 157 332 147 335 136 c 0
 342 116 348 112 384 110 c 0
 388 110 394 110 397 110 c 0
 423 110 435 117 465 139 c 0
 486 156 522 195 541 226 c 0
 575 280 577 289 578 364 c 0
 579 454 591 487 623 487 c 0
 647 487 661 456 661 412 c 0
 661 376 653 332 635 289 c 0
 595 192 529 87 491 57 c 0
 442 17 394 -1 353 -1 c 0
 300 -1 260 30 252 91 c 0
 250 102 249 112 249 123 c 0
 249 180 269 236 306 286 c 0
 336 327 349 351 349 365 c 0
 349 379 336 385 307 391 c 0
 300 392 293 393 286 393 c 0
 250 393 223 377 212 350 c 0
 189 286 184 280 167 280 c 0
 147 280 136 297 127 336 c 0
EndSplineSet
Validated: 1
EndChar

StartChar: w
Encoding: 119 119 69
Width: 779
VWidth: 915
Flags: HW
LayerCount: 2
Fore
SplineSet
174 470 m 0
 196 491 211 497 239 497 c 0
 340 497 386 458 386 366 c 0
 386 333 380 294 368 247 c 0
 352 188 346 155 346 138 c 0
 346 121 353 119 366 119 c 0
 373 119 494 175 534 266 c 0
 545 290 550 316 550 342 c 0
 550 363 546 384 538 398 c 0
 530 412 526 424 526 435 c 0
 526 446 530 455 539 464 c 0
 548 473 560 479 572 479 c 0
 588 479 603 471 620 458 c 0
 639 441 644 434 644 406 c 0
 644 400 644 395 644 388 c 0
 642 334 615 248 587 209 c 0
 566 180 548 131 548 109 c 0
 548 105 548 101 550 99 c 0
 553 96 560 95 567 95 c 0
 593 95 638 114 681 147 c 0
 768 211 810 278 810 342 c 0
 810 363 806 383 796 404 c 0
 789 420 786 432 786 443 c 0
 786 469 803 483 834 485 c 0
 837 485 842 487 845 487 c 0
 882 487 892 468 892 411 c 0
 892 349 874 302 824 229 c 0
 684 28 530 1 457 1 c 0
 444 1 433 3 426 4 c 0
 413 6 405 15 405 27 c 0
 405 39 413 54 426 71 c 0
 434 82 437 90 437 97 c 0
 437 104 432 108 425 108 c 0
 418 108 411 104 403 100 c 0
 376 84 378 86 279 35 c 0
 239 14 216 5 199 5 c 0
 187 5 179 9 171 17 c 0
 163 25 158 34 158 43 c 0
 158 60 174 83 214 125 c 0
 284 198 322 268 322 318 c 0
 322 344 313 364 294 380 c 0
 277 392 261 398 247 398 c 0
 221 398 201 379 201 346 c 0
 201 332 187 321 175 321 c 0
 169 321 164 324 161 327 c 0
 157 331 151 359 149 389 c 0
 148 401 148 411 148 419 c 0
 148 443 153 450 174 470 c 0
EndSplineSet
Validated: 1
EndChar

StartChar: x
Encoding: 120 120 70
Width: 485
VWidth: 914
Flags: HW
LayerCount: 2
Fore
SplineSet
212 464 m 0
 228 476 249 487 261 487 c 0
 319 479 317 413 334 371 c 0
 343 350 350 338 362 338 c 0
 378 338 399 359 438 406 c 0
 485 462 513 486 540 486 c 0
 548 486 557 484 565 481 c 0
 584 472 587 465 587 435 c 0
 587 377 571 346 543 346 c 0
 534 346 525 348 514 355 c 0
 497 364 487 370 476 370 c 0
 460 370 447 361 421 340 c 0
 383 309 365 274 365 230 c 0
 365 222 366 213 367 204 c 0
 374 153 389 129 416 129 c 0
 428 129 444 134 462 143 c 0
 472 149 479 151 485 151 c 0
 496 151 498 139 498 109 c 0
 498 78 493 69 461 39 c 0
 435 17 413 4 392 4 c 0
 356 4 327 40 306 111 c 0
 297 141 283 168 276 170 c 0
 275 170 274 170 273 170 c 0
 244 170 182 52 134 13 c 0
 122 3 107 -1 95 -1 c 0
 66 -1 42 23 42 60 c 0
 42 106 65 136 93 136 c 0
 100 136 105 134 112 131 c 0
 124 124 136 121 147 121 c 0
 165 121 183 129 196 146 c 0
 232 186 270 203 270 253 c 0
 270 265 269 278 263 295 c 0
 253 336 251 340 225 340 c 0
 209 339 190 336 179 332 c 0
 176 331 171 330 169 330 c 0
 157 330 152 340 152 353 c 0
 152 383 175 433 212 464 c 0
EndSplineSet
Validated: 1
EndChar

StartChar: z
Encoding: 122 122 71
Width: 749
VWidth: 906
Flags: HW
LayerCount: 2
Fore
SplineSet
213 443 m 0
 251 461 287 471 322 471 c 0
 355 471 387 462 418 446 c 0
 444 433 455 428 470 428 c 0
 483 428 496 433 522 442 c 0
 549 451 568 455 584 455 c 0
 602 455 612 448 612 437 c 0
 612 419 588 389 539 353 c 0
 502 324 455 297 434 287 c 0
 380 261 299 193 299 172 c 1
 316 107 416 94 464 64 c 1
 521 36 568 22 602 22 c 0
 642 22 665 42 665 80 c 0
 665 86 665 90 664 96 c 0
 663 102 662 105 662 111 c 0
 662 148 681 170 701 170 c 0
 713 170 728 162 740 143 c 0
 746 135 748 122 748 109 c 0
 748 65 722 2 687 -29 c 0
 648 -65 592 -82 533 -82 c 0
 479 -82 423 -66 377 -35 c 0
 314 5 247 56 173 62 c 0
 161 61 140 50 128 43 c 0
 119 37 112 35 106 35 c 0
 100 35 92 38 83 44 c 0
 73 51 68 56 68 62 c 0
 68 68 75 74 86 90 c 0
 105 119 173 166 222 190 c 0
 265 209 356 299 356 323 c 0
 356 350 317 369 277 369 c 0
 270 369 260 369 253 367 c 0
 222 361 202 356 187 356 c 0
 166 356 159 365 157 385 c 0
 156 389 156 393 156 396 c 0
 156 415 167 423 213 443 c 0
EndSplineSet
Validated: 1
EndChar

StartChar: at
Encoding: 64 64 72
Width: 339
VWidth: 880
Flags: HW
LayerCount: 2
Fore
SplineSet
555 846 m 0
 593 858 624 862 649 862 c 0
 710 862 741 837 750 820 c 0
 755 811 759 790 759 769 c 0
 759 735 748 695 723 676 c 0
 714 668 705 664 699 664 c 0
 667 664 656 735 627 754 c 0
 614 760 601 764 587 764 c 0
 545 764 503 735 479 701 c 0
 380 566 339 399 296 240 c 0
 251 72 243 -205 75 -283 c 0
 55 -293 35 -298 16 -298 c 0
 -17 -298 -46 -284 -69 -259 c 0
 -81 -249 -87 -235 -87 -220 c 0
 -87 -192 -67 -163 -38 -163 c 0
 -34 -163 -28 -163 -24 -165 c 0
 -4 -174 21 -185 43 -185 c 0
 63 -185 82 -176 94 -151 c 0
 128 -74 137 10 159 90 c 0
 199 244 236 401 292 551 c 0
 342 674 428 806 555 846 c 0
EndSplineSet
Validated: 1
EndChar

StartChar: c_t
Encoding: 256 -1 73
Width: 697
Flags: HW
LayerCount: 2
Fore
SplineSet
708 802 m 0
 722 810 734 813 744 813 c 0
 763 813 774 800 774 778 c 0
 774 771 773 764 771 755 c 0
 766 737 744 673 722 613 c 0
 701 557 690 525 690 506 c 0
 690 482 706 478 742 474 c 0
 778 470 791 453 791 436 c 0
 791 429 789 423 786 417 c 0
 779 405 768 390 737 390 c 0
 733 390 728 390 723 391 c 0
 708 393 698 393 689 393 c 0
 672 393 666 390 664 383 c 0
 662 375 654 355 647 337 c 0
 605 222 583 145 583 125 c 0
 583 106 597 106 606 106 c 0
 610 106 614 107 619 107 c 0
 656 108 705 148 719 148 c 0
 722 148 723 146 723 143 c 0
 723 139 720 131 714 119 c 0
 711 112 624 -5 542 -5 c 0
 485 -5 476 1 476 48 c 0
 476 71 483 106 491 125 c 0
 499 145 510 189 519 222 c 0
 531 268 558 327 558 372 c 0
 558 387 556 401 548 412 c 0
 536 426 524 435 524 445 c 0
 524 455 524 455 561 471 c 0
 593 485 600 493 618 547 c 0
 640 612 650 651 650 677 c 0
 650 689 649 698 645 706 c 0
 636 724 632 729 581 729 c 0
 568 729 553 728 533 728 c 0
 380 724 327 710 304 668 c 0
 300 660 299 650 299 639 c 0
 299 586 339 503 377 494 c 0
 400 488 418 456 418 436 c 0
 418 433 417 430 416 428 c 0
 412 416 402 414 379 414 c 0
 370 414 358 415 344 415 c 0
 342 415 339 415 337 415 c 0
 285 415 224 343 197 232 c 0
 190 201 187 174 187 153 c 0
 187 107 202 84 232 84 c 0
 240 84 250 86 261 90 c 0
 298 102 353 152 369 187 c 0
 376 203 389 213 399 213 c 0
 406 213 413 209 416 200 c 0
 416 199 416 197 416 195 c 0
 416 177 398 135 378 111 c 0
 314 34 255 -5 206 -5 c 0
 184 -5 164 3 146 18 c 0
 118 42 103 84 103 136 c 0
 103 198 123 274 162 353 c 0
 222 476 286 441 286 493 c 0
 286 500 274 531 258 563 c 0
 239 602 229 634 229 660 c 0
 229 686 239 708 258 730 c 0
 302 780 342 795 434 795 c 0
 437 795 440 795 443 795 c 0
 490 794 544 789 562 783 c 0
 581 778 598 776 615 776 c 0
 647 776 676 785 708 802 c 0
EndSplineSet
Validated: 1
LCarets2: 1 0
Ligature2: "Ligature Substitution in Latin lookup 0-1" c t
EndChar

StartChar: f_f
Encoding: 257 -1 74
Width: 698
Flags: HW
LayerCount: 2
Fore
SplineSet
740 878 m 0
 785 890 833 906 878 906 c 0
 897 906 916 903 934 896 c 0
 976 877 1036 823 1036 779 c 0
 1036 771 1034 764 1030 757 c 0
 1019 738 1003 729 984 728 c 0
 983 728 982 728 981 728 c 0
 952 728 930 747 902 797 c 0
 887 822 879 829 855 829 c 0
 853 829 851 829 849 829 c 0
 720 824 661 596 661 543 c 0
 661 438 794 509 794 450 c 0
 794 448 794 446 794 444 c 0
 792 424 755 410 709 408 c 0
 546 392 586 240 545 114 c 1
 518 -11 510 -41 483 -109 c 0
 450 -199 445 -309 356 -365 c 0
 336 -377 311 -382 287 -382 c 0
 259 -382 231 -374 214 -358 c 0
 203 -347 197 -341 197 -336 c 0
 197 -330 202 -325 215 -314 c 0
 228 -303 283 -302 302 -301 c 0
 374 -289 500 345 500 390 c 0
 500 393 500 396 422 397 c 0
 411 397 402 398 394 398 c 0
 352 398 350 393 334 358 c 0
 324 335 310 277 301 229 c 0
 292 181 274 104 260 60 c 0
 246 16 231 -45 226 -75 c 0
 222 -104 207 -165 195 -210 c 0
 183 -254 174 -300 174 -313 c 0
 174 -345 68 -393 -5 -405 c 0
 -24 -408 -37 -409 -47 -409 c 0
 -65 -409 -72 -404 -83 -390 c 0
 -95 -373 -102 -348 -102 -326 c 0
 -102 -307 -98 -290 -88 -280 c 0
 -79 -270 -71 -268 -65 -268 c 0
 -50 -268 -36 -286 9 -286 c 0
 15 -286 21 -286 28 -285 c 0
 111 -277 211 228 241 394 c 0
 241 403 232 410 222 410 c 0
 212 410 193 419 180 430 c 0
 167 441 161 453 161 463 c 0
 161 480 178 493 210 494 c 0
 255 496 270 513 291 579 c 0
 322 680 368 778 399 810 c 0
 442 854 516 881 583 881 c 0
 604 881 625 878 644 872 c 0
 656 868 666 866 678 866 c 0
 694 866 712 870 740 878 c 0
596 779 m 0
 588 788 567 799 549 801 c 0
 544 802 541 802 537 802 c 0
 518 802 507 792 478 758 c 0
 435 706 409 655 384 571 c 0
 376 546 372 527 372 513 c 0
 372 482 392 472 441 472 c 0
 448 472 455 473 463 473 c 0
 536 476 543 483 583 602 c 0
 601 657 610 698 610 729 c 0
 610 751 605 767 596 779 c 0
EndSplineSet
Validated: 1
LCarets2: 1 0
Ligature2: "Ligature Substitution in Latin lookup 0-1" f f
EndChar

StartChar: f_f_i
Encoding: 258 -1 75
Width: 911
Flags: HW
LayerCount: 2
Fore
SplineSet
849 423 m 0
 890 463 911 476 928 476 c 0
 929 476 931 476 932 476 c 0
 951 474 961 459 961 431 c 0
 961 401 950 356 928 300 c 0
 907 249 897 215 897 194 c 0
 897 175 903 166 920 164 c 0
 934 162 942 155 942 144 c 0
 942 126 924 98 887 59 c 0
 844 15 807 -9 781 -9 c 0
 760 -9 746 6 744 37 c 0
 744 39 742 42 742 45 c 0
 742 81 762 136 805 233 c 0
 823 273 831 297 831 314 c 0
 831 330 824 338 808 342 c 0
 796 344 790 347 790 354 c 0
 790 365 809 385 849 423 c 0
740 878 m 0
 785 890 833 906 878 906 c 0
 897 906 916 903 934 896 c 0
 976 877 1036 823 1036 779 c 0
 1036 771 1034 764 1030 757 c 0
 1019 738 1003 729 984 728 c 0
 983 728 982 728 981 728 c 0
 952 728 930 747 902 797 c 0
 887 822 879 829 855 829 c 0
 853 829 851 829 849 829 c 0
 720 824 661 596 661 543 c 0
 661 438 794 509 794 450 c 0
 794 448 794 446 794 444 c 0
 792 424 755 410 709 408 c 0
 546 392 586 240 545 114 c 1
 518 -11 510 -41 483 -109 c 0
 450 -199 445 -309 356 -365 c 0
 336 -377 311 -382 287 -382 c 0
 259 -382 231 -374 214 -358 c 0
 203 -347 197 -341 197 -336 c 0
 197 -330 202 -325 215 -314 c 0
 228 -303 283 -302 302 -301 c 0
 374 -289 500 345 500 390 c 0
 500 393 500 396 422 397 c 0
 411 397 402 398 394 398 c 0
 352 398 350 393 334 358 c 0
 324 335 310 277 301 229 c 0
 292 181 274 104 260 60 c 0
 246 16 231 -45 226 -75 c 0
 222 -104 207 -165 195 -210 c 0
 183 -254 174 -300 174 -313 c 0
 174 -345 68 -393 -5 -405 c 0
 -24 -408 -37 -409 -47 -409 c 0
 -65 -409 -72 -404 -83 -390 c 0
 -95 -373 -102 -348 -102 -326 c 0
 -102 -307 -98 -290 -88 -280 c 0
 -79 -270 -71 -268 -65 -268 c 0
 -50 -268 -36 -286 9 -286 c 0
 15 -286 21 -286 28 -285 c 0
 111 -277 211 228 241 394 c 0
 241 403 232 410 222 410 c 0
 212 410 193 419 180 430 c 0
 167 441 161 453 161 463 c 0
 161 480 178 493 210 494 c 0
 255 496 270 513 291 579 c 0
 322 680 368 778 399 810 c 0
 442 854 516 881 583 881 c 0
 604 881 625 878 644 872 c 0
 656 868 666 866 678 866 c 0
 694 866 712 870 740 878 c 0
596 779 m 0
 588 788 567 799 549 801 c 0
 544 802 541 802 537 802 c 0
 518 802 507 792 478 758 c 0
 435 706 409 655 384 571 c 0
 376 546 372 527 372 513 c 0
 372 482 392 472 441 472 c 0
 448 472 455 473 463 473 c 0
 536 476 543 483 583 602 c 0
 601 657 610 698 610 729 c 0
 610 751 605 767 596 779 c 0
EndSplineSet
Validated: 1
Ligature2: "Ligature Substitution in Latin lookup 0-1" f f i
EndChar

StartChar: f_i
Encoding: 259 -1 76
Width: 592
Flags: HW
LayerCount: 2
Fore
SplineSet
543 863 m 0
 553 866 565 867 579 867 c 0
 621 867 675 853 700 835 c 0
 732 812 749 773 749 741 c 0
 749 718 741 699 722 691 c 0
 710 686 698 684 688 684 c 0
 661 684 642 701 634 734 c 0
 624 778 610 788 559 789 c 2
 558 789 l 2
 492 789 384 636 377 531 c 0
 377 527 377 524 377 521 c 0
 377 501 383 498 416 489 c 0
 432 486 465 483 499 483 c 0
 512 483 525 483 537 484 c 0
 559 485 575 486 587 486 c 0
 614 486 619 482 623 468 c 0
 624 463 625 457 625 450 c 0
 625 425 614 392 593 347 c 0
 592 344 522 152 522 111 c 0
 522 108 522 106 523 105 c 0
 525 102 528 101 531 101 c 0
 549 101 584 136 600 136 c 0
 608 136 619 134 619 121 c 0
 619 109 609 88 589 60 c 0
 551 9 486 -36 449 -36 c 2
 448 -36 l 2
 420 -35 401 -11 401 24 c 0
 401 99 510 306 510 374 c 0
 510 412 503 412 427 417 c 0
 415 418 403 419 392 419 c 0
 361 419 338 415 332 411 c 0
 325 405 312 369 304 331 c 0
 296 293 280 227 268 185 c 0
 256 143 234 37 218 -51 c 0
 187 -220 157 -294 98 -338 c 0
 65 -363 22 -375 -18 -375 c 0
 -54 -375 -87 -364 -109 -343 c 0
 -124 -328 -132 -317 -132 -306 c 0
 -132 -297 -127 -287 -116 -277 c 0
 -107 -269 -97 -265 -78 -265 c 0
 -67 -265 -53 -267 -34 -269 c 0
 -13 -272 2 -273 12 -273 c 0
 32 -273 37 -266 52 -244 c 0
 72 -211 112 -78 132 18 c 0
 158 139 189 250 224 344 c 0
 234 373 240 393 240 407 c 0
 240 426 230 436 209 445 c 0
 192 452 183 464 183 476 c 0
 183 488 192 499 209 503 c 0
 244 511 273 543 300 607 c 0
 352 733 448 835 543 863 c 0
EndSplineSet
Validated: 1
LCarets2: 1 0
Ligature2: "Ligature Substitution in Latin lookup 0-1" f i
EndChar

StartChar: f_l
Encoding: 260 -1 77
Width: 644
VWidth: 942
Flags: HW
LayerCount: 2
Fore
SplineSet
604 583 m 0
 623 644 628 724 628 724 c 2
 628 726 629 729 629 731 c 0
 629 763 606 788 559 789 c 2
 558 789 l 2
 492 789 384 636 377 531 c 0
 377 527 377 524 377 521 c 0
 377 501 383 498 416 489 c 0
 433 486 480 484 512 484 c 0
 522 484 531 484 537 484 c 0
 559 486 585 522 604 583 c 0
427 417 m 2
 415 418 403 419 392 419 c 0
 361 419 338 415 332 411 c 0
 325 405 312 369 304 331 c 0
 296 293 280 227 268 185 c 0
 256 143 234 37 218 -51 c 0
 187 -220 157 -294 98 -338 c 0
 65 -363 22 -375 -18 -375 c 0
 -54 -375 -87 -364 -109 -343 c 0
 -124 -328 -132 -317 -132 -306 c 0
 -132 -297 -127 -287 -116 -277 c 0
 -107 -269 -97 -265 -78 -265 c 0
 -67 -265 -53 -267 -34 -269 c 0
 -13 -272 2 -273 12 -273 c 0
 32 -273 37 -266 52 -244 c 0
 72 -211 112 -78 132 18 c 0
 158 139 189 250 224 344 c 0
 234 373 240 393 240 407 c 0
 240 426 230 436 209 445 c 0
 192 452 183 464 183 476 c 0
 183 488 192 499 209 503 c 0
 244 511 273 543 300 607 c 0
 352 733 448 835 543 863 c 0
 550 865 559 866 568 866 c 0
 613 866 680 843 699 813 c 0
 709 798 714 773 714 742 c 0
 714 698 705 641 689 579 c 0
 662 472 560 152 560 131 c 0
 560 128 563 122 574 122 c 0
 586 122 604 129 625 141 c 0
 643 152 659 161 665 161 c 0
 671 161 673 158 673 151 c 0
 673 138 662 110 642 79 c 0
 603 20 543 -17 497 -17 c 0
 476 -17 458 -10 447 7 c 0
 440 18 436 27 436 41 c 0
 436 67 449 109 479 201 c 0
 480 203 535 390 535 396 c 0
 535 415 475 418 444 418 c 0
 434 418 427 417 427 417 c 2
EndSplineSet
Validated: 1
LCarets2: 1 0
Ligature2: "Ligature Substitution in Latin lookup 0-1" f l
EndChar

StartChar: s_t
Encoding: 261 -1 78
Width: 581
Flags: HW
LayerCount: 2
Fore
SplineSet
523 842 m 0
 541 847 557 850 575 850 c 0
 588 850 602 849 621 846 c 0
 670 838 695 814 695 768 c 0
 695 734 682 688 656 627 c 0
 640 586 612 547 612 517 c 0
 612 500 621 485 646 475 c 0
 679 465 697 459 697 441 c 0
 697 435 695 429 691 420 c 0
 682 401 678 390 652 390 c 0
 646 390 640 391 632 392 c 0
 625 393 619 393 613 393 c 0
 574 393 561 368 527 277 c 0
 508 226 499 190 499 169 c 0
 499 152 505 144 517 144 c 0
 527 144 541 149 559 160 c 0
 576 170 587 173 594 173 c 0
 602 173 605 169 605 162 c 0
 605 147 592 120 576 95 c 0
 545 45 468 -19 420 -19 c 0
 383 -19 383 -18 383 14 c 0
 383 61 399 132 440 260 c 0
 461 322 477 382 477 391 c 0
 477 400 467 412 454 418 c 0
 440 424 433 432 433 440 c 0
 433 452 447 465 475 481 c 0
 520 507 560 574 581 661 c 0
 586 680 588 696 588 710 c 0
 588 746 572 765 542 765 c 0
 530 765 517 762 501 757 c 0
 475 748 459 734 436 697 c 0
 375 600 290 327 231 38 c 0
 190 -163 188 -170 134 -223 c 0
 87 -268 47 -289 1 -289 c 0
 -10 -289 -21 -287 -32 -285 c 0
 -75 -276 -98 -256 -98 -225 c 0
 -98 -223 -97 -221 -97 -218 c 0
 -95 -195 -94 -194 -24 -194 c 0
 19 -194 54 -190 63 -183 c 0
 90 -160 135 -24 174 151 c 0
 238 436 270 544 320 642 c 0
 372 745 448 819 523 842 c 0
EndSplineSet
Validated: 1
LCarets2: 1 0
Ligature2: "Ligature Substitution in Latin lookup 0-1" s t
Ligature2: "Ligature Substitution in Latin lookup 0-1" at t
EndChar

StartChar: s_i
Encoding: 262 -1 79
Width: 607
VWidth: 880
Flags: HW
LayerCount: 2
Fore
SplineSet
549 423 m 0
 590 463 611 476 628 476 c 0
 629 476 631 476 632 476 c 0
 651 474 661 459 661 431 c 0
 661 401 650 356 628 300 c 0
 607 249 597 215 597 194 c 0
 597 175 603 166 620 164 c 0
 634 162 642 155 642 144 c 0
 642 126 624 98 587 59 c 0
 544 15 507 -9 481 -9 c 0
 460 -9 446 6 444 37 c 0
 444 39 442 42 442 45 c 0
 442 81 462 136 505 233 c 0
 523 273 531 297 531 314 c 0
 531 330 524 338 508 342 c 0
 496 344 490 347 490 354 c 0
 490 365 509 385 549 423 c 0
545 846 m 0
 583 858 614 862 639 862 c 0
 700 862 731 837 740 820 c 0
 745 811 749 790 749 769 c 0
 749 735 738 695 713 676 c 0
 704 668 695 664 689 664 c 0
 657 664 646 735 617 754 c 0
 604 760 591 764 577 764 c 0
 535 764 493 735 469 701 c 0
 370 566 329 399 286 240 c 0
 241 72 233 -205 65 -283 c 0
 45 -293 25 -298 6 -298 c 0
 -27 -298 -56 -284 -79 -259 c 0
 -91 -249 -97 -235 -97 -220 c 0
 -97 -192 -77 -163 -48 -163 c 0
 -44 -163 -38 -163 -34 -165 c 0
 -14 -174 11 -185 33 -185 c 0
 53 -185 72 -176 84 -151 c 0
 118 -74 127 10 149 90 c 0
 189 244 226 401 282 551 c 0
 332 674 418 806 545 846 c 0
EndSplineSet
Validated: 1
LCarets2: 1 0
Ligature2: "Ligature Substitution in Latin lookup 0-1" at i
Ligature2: "Ligature Substitution in Latin lookup 0-1" s i
EndChar

StartChar: s_s
Encoding: 263 -1 80
Width: 619
Flags: HW
LayerCount: 2
Fore
SplineSet
807 881 m 0
 818 882 828 883 840 883 c 0
 893 883 951 871 968 853 c 0
 989 828 996 804 996 783 c 0
 996 733 955 698 953 698 c 0
 948 696 943 695 938 695 c 0
 916 695 896 710 896 727 c 0
 896 736 896 751 888 769 c 0
 876 796 856 809 832 809 c 0
 781 809 714 749 678 656 c 0
 581 387 504 110 406 -158 c 1
 388 -229 336 -279 296 -294 c 0
 267 -305 242 -309 222 -309 c 0
 170 -309 147 -280 147 -268 c 0
 147 -235 155 -218 178 -218 c 0
 185 -218 193 -219 202 -222 c 0
 212 -224 220 -226 228 -226 c 0
 266 -226 289 -197 321 -122 c 1
 423 155 549 500 616 760 c 1
 603 772 587 778 571 778 c 0
 524 778 469 732 428 662 c 0
 348 516 284 347 236 183 c 0
 188 19 179 -45 134 -157 c 1
 92 -274 43 -307 -51 -307 c 0
 -54 -307 -57 -307 -61 -307 c 0
 -110 -306 -147 -291 -147 -260 c 0
 -147 -255 -147 -251 -145 -246 c 0
 -139 -228 -123 -223 -103 -223 c 0
 -84 -223 -61 -227 -39 -227 c 0
 -13 -227 12 -222 27 -197 c 1
 96 -2 185 346 210 417 c 0
 263 560 316 708 434 808 c 0
 484 852 523 869 571 869 c 0
 580 869 591 868 601 867 c 0
 646 861 672 856 694 856 c 0
 706 856 716 857 726 861 c 0
 747 869 784 877 807 881 c 0
EndSplineSet
Validated: 1
Ligature2: "Ligature Substitution in Latin lookup 0-1" at at
EndChar

StartChar: s_s_i
Encoding: 264 -1 81
Width: 863
Flags: HW
LayerCount: 2
Fore
SplineSet
789 423 m 0
 830 463 851 476 868 476 c 0
 869 476 871 476 872 476 c 0
 891 474 901 459 901 431 c 0
 901 401 890 356 868 300 c 0
 847 249 837 215 837 194 c 0
 837 175 843 166 860 164 c 0
 874 162 882 155 882 144 c 0
 882 126 864 98 827 59 c 0
 784 15 747 -9 721 -9 c 0
 700 -9 686 6 684 37 c 0
 684 39 682 42 682 45 c 0
 682 81 702 136 745 233 c 0
 763 273 771 297 771 314 c 0
 771 330 764 338 748 342 c 0
 736 344 730 347 730 354 c 0
 730 365 749 385 789 423 c 0
807 881 m 0
 818 882 828 883 840 883 c 0
 893 883 951 871 968 853 c 0
 989 828 996 804 996 783 c 0
 996 733 955 698 953 698 c 0
 948 696 943 695 938 695 c 0
 916 695 896 710 896 727 c 0
 896 736 896 751 888 769 c 0
 876 796 856 809 832 809 c 0
 781 809 714 749 678 656 c 0
 581 387 504 110 406 -158 c 1
 388 -229 336 -279 296 -294 c 0
 267 -305 242 -309 222 -309 c 0
 170 -309 147 -280 147 -268 c 0
 147 -235 155 -218 178 -218 c 0
 185 -218 193 -219 202 -222 c 0
 212 -224 220 -226 228 -226 c 0
 266 -226 289 -197 321 -122 c 1
 423 155 549 500 616 760 c 1
 603 772 587 778 571 778 c 0
 524 778 469 732 428 662 c 0
 348 516 284 347 236 183 c 0
 188 19 179 -45 134 -157 c 1
 92 -274 43 -307 -51 -307 c 0
 -54 -307 -57 -307 -61 -307 c 0
 -110 -306 -147 -291 -147 -260 c 0
 -147 -255 -147 -251 -145 -246 c 0
 -139 -228 -123 -223 -103 -223 c 0
 -84 -223 -61 -227 -39 -227 c 0
 -13 -227 12 -222 27 -197 c 1
 96 -2 185 346 210 417 c 0
 263 560 316 708 434 808 c 0
 484 852 523 869 571 869 c 0
 580 869 591 868 601 867 c 0
 646 861 672 856 694 856 c 0
 706 856 716 857 726 861 c 0
 747 869 784 877 807 881 c 0
EndSplineSet
Validated: 1
Ligature2: "Ligature Substitution in Latin lookup 0-1" at at i
EndChar

StartChar: colon
Encoding: 58 58 82
Width: 272
Flags: HW
LayerCount: 2
Fore
SplineSet
156 170 m 1
 156 171 l 1
 161 173 169 173 175 173 c 0
 190 173 206 169 219 162 c 0
 226 157 246 146 246 98 c 0
 246 79 238 67 226 55 c 0
 200 32 187 27 161 27 c 0
 144 27 134 31 118 44 c 0
 101 59 93 68 93 89 c 0
 93 94 93 100 94 107 c 0
 99 131 130 163 156 170 c 1
190 462 m 1
 189 463 l 1
 191 468 193 472 197 477 c 0
 206 489 218 500 231 505 c 0
 234 506 240 508 248 508 c 0
 260 508 276 503 301 486 c 0
 317 475 324 462 328 446 c 0
 330 436 330 427 330 420 c 0
 330 403 326 393 316 379 c 0
 306 366 297 362 277 357 c 0
 268 355 262 354 255 354 c 0
 245 354 235 357 224 365 c 0
 220 368 215 371 210 376 c 0
 197 389 187 418 187 441 c 0
 187 449 188 456 190 462 c 1
EndSplineSet
Validated: 1
EndChar

StartChar: semicolon
Encoding: 59 59 83
Width: 272
Flags: HW
LayerCount: 2
Fore
SplineSet
190 462 m 1
 189 463 l 1
 191 468 193 472 197 477 c 0
 206 489 218 500 231 505 c 0
 234 506 240 508 248 508 c 0
 260 508 276 503 301 486 c 0
 317 475 324 462 328 446 c 0
 330 436 330 427 330 420 c 0
 330 403 326 393 316 379 c 0
 306 366 297 362 277 357 c 0
 268 355 262 354 255 354 c 0
 245 354 235 357 224 365 c 0
 220 368 215 371 210 376 c 0
 197 389 187 418 187 441 c 0
 187 449 188 456 190 462 c 1
114 186 m 0
 126 192 139 194 152 194 c 0
 189 194 226 173 244 137 c 0
 256 114 262 101 262 69 c 0
 262 63 261 57 261 50 c 0
 258 -8 245 -30 213 -64 c 0
 185 -94 145 -105 115 -105 c 0
 90 -105 70 -98 70 -87 c 0
 70 -84 72 -79 76 -75 c 0
 81 -70 97 -61 112 -53 c 0
 141 -38 165 -8 165 15 c 0
 165 39 147 62 112 82 c 0
 87 97 78 107 78 124 c 0
 78 132 80 141 83 152 c 0
 88 170 95 177 114 186 c 0
EndSplineSet
Validated: 1
EndChar

StartChar: exclam
Encoding: 33 33 84
Width: 254
Flags: HW
LayerCount: 2
Fore
SplineSet
94 94 m 0
 94 97 94 99 94 102 c 0
 94 115 98 126 99 130 c 0
 106 151 127 167 155 167 c 0
 159 167 163 167 167 166 c 0
 181 164 190 161 197 157 c 0
 207 152 212 145 219 131 c 0
 223 121 225 110 225 100 c 0
 225 90 223 79 220 70 c 0
 213 49 199 33 181 26 c 0
 172 23 164 21 156 21 c 0
 147 21 140 23 132 27 c 0
 113 37 99 60 94 94 c 0
334 790 m 0
 350 803 366 810 379 810 c 0
 397 810 412 799 416 777 c 0
 417 772 417 768 417 763 c 0
 417 754 416 742 410 723 c 0
 398 683 369 611 306 457 c 0
 271 369 237 281 232 263 c 0
 223 237 202 221 186 221 c 0
 180 221 175 223 171 229 c 0
 170 230 170 233 170 236 c 0
 170 257 182 321 204 400 c 0
 229 487 261 605 277 662 c 0
 281 677 285 690 289 702 c 0
 305 756 314 773 334 790 c 0
EndSplineSet
Validated: 1
EndChar

StartChar: question
Encoding: 63 63 85
Width: 355
Flags: HW
LayerCount: 2
Fore
SplineSet
145 126 m 0
 160 143 180 151 200 151 c 0
 222 151 245 141 262 121 c 0
 271 110 283 92 283 72 c 0
 283 42 260 16 222 8 c 0
 217 7 213 7 209 7 c 0
 194 7 181 14 159 32 c 0
 135 53 126 69 126 85 c 0
 126 98 132 111 145 126 c 0
395 748 m 0
 452 732 494 688 494 629 c 0
 494 619 493 609 491 598 c 0
 478 542 432 488 342 421 c 0
 283 377 256 350 251 328 c 0
 249 319 250 311 256 303 c 0
 266 289 280 286 324 284 c 0
 366 282 390 261 390 243 c 0
 390 241 390 239 390 238 c 0
 383 212 369 203 328 203 c 0
 271 203 189 270 179 326 c 0
 178 333 177 340 177 346 c 0
 177 354 178 362 180 370 c 0
 190 415 231 463 319 535 c 0
 386 591 401 604 406 627 c 0
 407 630 408 634 408 637 c 0
 406 652 394 666 355 668 c 0
 351 668 347 668 343 668 c 0
 283 669 252 680 252 698 c 0
 252 707 263 733 301 744 c 0
 320 749 339 753 358 753 c 0
 370 753 383 751 395 748 c 0
EndSplineSet
Validated: 1
EndChar
